<svg width="646" height="493" viewBox="0 0 646 493" fill="none" xmlns="http://www.w3.org/2000/svg">
<g clip-path="url(#clip0)">
<path d="M606.858 176.703C615.908 193.128 629.06 208.615 630.204 227.135C632.031 256.883 602.947 279.296 591.117 306.866C576.494 340.683 588.759 380.555 575.853 415.052C566.504 440.009 543.567 459.959 516.609 466.546C496.411 471.485 475.164 469.267 454.299 469.458C395.082 470.029 336.097 490.482 277.698 481.202C248.86 476.616 221.589 464.872 192.614 461.17C157.875 456.666 117.384 462.109 92.5524 438.54C57.881 405.526 83.6393 344.969 57.5948 305.451C49.2132 292.727 35.7071 282.766 31.1824 268.382C25.8945 251.562 34.4669 233.64 45.1109 219.311C55.755 204.981 68.9203 191.781 74.6852 175.097C79.9186 159.951 76.7295 143.499 70.2831 128.829C60.416 106.28 87.8778 54.5963 142.324 58.4747C167.292 60.2029 178.536 31.299 205.916 23.3246C237.262 14.1662 276.635 21.5283 299.736 29.1897C323.204 36.9736 352.234 41.0697 365.685 21.1744C384.683 -6.9266 441.311 -11.3221 466.742 34.3064C476.037 50.9765 484.296 63.9452 504.071 62.666C611.22 55.7939 593.407 152.29 606.858 176.703ZM314.823 22.5081C314.823 26.332 314.823 32.9048 331.722 31.8297C336.901 31.5031 341.126 28.727 341.126 24.9031C341.126 21.0792 336.915 17.9765 331.722 17.9765C326.53 17.9765 314.823 16.3299 314.823 22.5081ZM148.376 41.0833C147.893 41.4349 147.509 41.9032 147.258 42.4442C146.023 44.0989 144.304 45.3304 142.338 45.9687C141.171 46.2945 140.085 46.86 139.149 47.6289C138.834 47.9706 138.592 48.3724 138.438 48.8102C138.283 49.2479 138.22 49.7124 138.25 50.1755C138.281 50.6387 138.405 51.0908 138.616 51.5045C138.827 51.9182 139.119 52.2848 139.476 52.5823C140.807 53.4287 142.396 53.7759 143.96 53.5621C149.838 53.2703 155.481 51.164 160.11 47.5336C166.066 42.798 151.646 39.3143 148.376 41.0833ZM132.335 49.9015C130.358 48.5407 127.796 49.3572 125.834 50.3642C125.611 50.4501 125.409 50.5799 125.238 50.7459C125.067 50.912 124.931 51.1107 124.839 51.3304C124.58 52.2557 125.766 52.9225 126.72 53.2219C128.179 53.8361 129.793 53.9834 131.34 53.6438C132.825 53.1539 134.324 51.1943 132.335 49.9015ZM57.6085 171.913C56.1502 167.45 52.6885 165.231 47.4415 167.831C44.4525 169.532 41.9765 172.004 40.2728 174.989C37.2608 179.547 34.6714 184.773 35.2983 190.121C35.5578 192.102 36.2319 194.007 37.2767 195.712C38.3216 197.416 39.7138 198.882 41.3631 200.014C42.7123 201.042 44.3545 201.614 46.0513 201.647C47.8964 201.458 49.6359 200.696 51.0258 199.47C54.2966 196.705 57.1921 193.525 59.6391 190.012C61.1255 188.385 62.1551 186.394 62.6238 184.242C63.169 179.629 58.9577 176.009 57.6085 171.913ZM605.482 309.357C604.108 309.794 602.897 310.633 602.007 311.765C601.472 312.721 601.168 313.788 601.121 314.881C600.869 317.141 600.742 319.412 600.739 321.686C600.739 324.162 600.998 326.898 602.906 328.585C605.468 330.858 609.543 330.055 612.896 329.116C614.828 328.778 616.613 327.868 618.02 326.503C618.826 325.369 619.328 324.048 619.479 322.665C620.296 318.147 622.777 311.316 620.024 308.975C617.271 306.635 610.252 307.37 605.441 309.329L605.482 309.357ZM416.179 484.087C415.475 484.695 414.884 485.422 414.435 486.237C414.177 486.809 414.036 487.426 414.019 488.053C414.003 488.68 414.111 489.305 414.338 489.889C414.565 490.474 414.906 491.008 415.342 491.461C415.777 491.913 416.298 492.274 416.874 492.524C418.126 492.932 419.446 493.09 420.759 492.986C432.03 492.837 444.145 492.428 453.154 485.964C454.258 485.175 455.389 484.073 455.198 482.767C454.967 481.202 453.018 480.521 451.382 480.208C440.125 478.044 425.215 475.609 416.179 484.087ZM202.223 466.763C192.423 465.402 176.832 463.579 176.832 471.485C176.832 474.479 190.665 477.35 192.955 477.895C199.956 479.756 206.842 482.028 213.575 484.699C226.413 489.435 236.744 483.052 226.522 475.908C219.324 470.863 210.965 467.718 202.223 466.763Z" fill="#C8EEFB"/>
<path d="M524.35 279.582C539.551 277.906 554.465 274.246 568.712 268.695C569.393 268.409 569.802 273.05 569.802 273.05C569.802 273.05 572.978 266.858 574.081 266.341C585.761 260.898 596.473 253.168 602.225 242.567C602.225 242.567 605.06 307.642 521.27 322.094L524.35 279.582Z" fill="#5084DA"/>
<path d="M552.207 353.815C552.207 353.815 579.86 368.444 633.98 370.988C633.98 370.988 597.182 404.505 513.039 392.966L515.764 354.795L552.207 353.815Z" fill="#5084DA"/>
<path d="M513.529 316.664C523.859 310.546 534.827 305.572 546.238 301.831C547.042 301.559 548.759 306.322 548.759 306.322C548.759 306.322 551.485 300.117 552.984 299.681C577.189 292.442 610.306 287.719 645.973 297.776C645.973 297.776 635.165 312.745 613.046 329.265C612.105 329.973 605.85 329.415 605.85 329.415C605.85 329.415 608.466 332.572 607.608 333.171C580.822 351.7 550.115 363.808 517.877 368.552L513.529 316.664Z" fill="#5193F4"/>
<g style="mix-blend-mode:multiply" opacity="0.4">
<g style="mix-blend-mode:multiply" opacity="0.4">
<path d="M646 297.762C635.516 304.389 624.643 310.383 613.441 315.712C602.279 321.155 590.804 325.945 579.179 330.327C573.373 332.545 567.444 334.409 561.57 336.396L552.643 339.118C551.158 339.553 549.672 340.03 548.173 340.479L543.649 341.608C531.632 344.741 519.434 347.136 507.124 348.78L516.228 346.902L520.78 345.99C522.292 345.65 523.792 345.255 525.291 344.901L534.327 342.751L543.281 340.275C549.264 338.682 555.138 336.723 560.998 334.94C566.845 332.899 572.732 330.994 578.483 328.735C590.109 324.503 601.53 319.712 612.787 314.555C618.42 311.987 623.999 309.307 629.523 306.512C635.047 303.718 640.539 300.801 646 297.762Z" fill="#5084DA"/>
</g>
<g style="mix-blend-mode:multiply" opacity="0.4">
<path d="M570.374 332.654C572.678 330.504 574.926 328.313 577.189 326.122C579.451 323.931 581.591 321.699 583.69 319.399C585.788 317.1 587.778 314.745 589.754 312.323C591.731 309.901 593.475 307.342 595.206 304.689C594.102 307.663 592.657 310.498 590.899 313.14C589.13 315.776 587.161 318.273 585.012 320.611C580.733 325.302 575.804 329.357 570.374 332.654Z" fill="#5084DA"/>
</g>
<g style="mix-blend-mode:multiply" opacity="0.4">
<path d="M536.889 342.683C539.346 341.044 541.679 339.224 543.867 337.24C546.049 335.304 548.072 333.197 549.918 330.939C551.788 328.703 553.465 326.313 554.933 323.795C556.42 321.248 557.757 318.617 558.94 315.916C558.422 318.874 557.505 321.749 556.214 324.462C554.922 327.197 553.287 329.758 551.349 332.082C549.427 334.423 547.225 336.521 544.793 338.329C542.394 340.17 539.729 341.638 536.889 342.683Z" fill="#5084DA"/>
</g>
<g style="mix-blend-mode:multiply" opacity="0.4">
<path d="M570.374 332.654C574.641 332.89 578.918 332.89 583.185 332.654C585.298 332.545 587.397 332.3 589.495 331.987C591.594 331.674 593.679 331.225 595.833 330.844C593.939 331.954 591.904 332.801 589.782 333.362C587.663 333.951 585.489 334.315 583.294 334.45C581.104 334.593 578.904 334.529 576.725 334.26C574.548 333.999 572.414 333.459 570.374 332.654Z" fill="#5084DA"/>
</g>
<g style="mix-blend-mode:multiply" opacity="0.4">
<path d="M537.557 342.738C540.16 343.051 542.735 343.296 545.311 343.568C547.887 343.84 550.449 344.017 553.011 344.126C555.574 344.235 558.136 344.235 560.698 344.126C563.281 343.997 565.855 343.738 568.412 343.35C565.999 344.419 563.449 345.147 560.834 345.514C558.215 345.861 555.57 345.98 552.93 345.868C547.669 345.667 542.476 344.61 537.557 342.738Z" fill="#5084DA"/>
</g>
</g>
<g opacity="0.23">
<g style="mix-blend-mode:multiply" opacity="0.5">
<path d="M593.611 259.441C591.2 265.509 587.584 271.027 582.981 275.663C578.431 280.362 573.248 284.407 567.581 287.679L563.26 289.992C561.829 290.781 560.289 291.353 558.804 292.006C555.812 293.298 552.744 294.406 549.618 295.326C548.092 295.884 546.483 296.17 544.902 296.565L540.16 297.694C536.943 298.198 533.741 298.66 530.524 299.055C533.672 298.252 536.834 297.613 539.955 296.823L544.589 295.463C546.129 294.986 547.696 294.619 549.182 293.993C552.167 292.809 555.247 291.87 558.109 290.427C559.553 289.733 561.066 289.189 562.456 288.4L566.667 286.1C572.208 282.901 577.354 279.065 582 274.669C583.17 273.578 584.284 272.429 585.339 271.226C585.87 270.627 586.415 270.042 586.933 269.43L588.419 267.538C590.425 265.025 592.165 262.312 593.611 259.441Z" fill="#605ACA"/>
</g>
</g>
<path d="M616.262 375.588C612.473 376.309 608.644 376.758 604.8 377.207C600.957 377.656 597.114 377.861 593.257 378.051C585.534 378.395 577.798 378.285 570.088 377.724C566.231 377.398 562.388 376.962 558.558 376.364C554.726 375.812 550.927 375.049 547.178 374.077C539.645 372.256 532.421 369.335 525.74 365.409C529.2 367.079 532.77 368.511 536.425 369.696C540.06 370.906 543.759 371.914 547.505 372.717C554.997 374.323 562.594 375.396 570.238 375.928C577.87 376.595 585.557 376.745 593.23 376.677C600.903 376.609 608.589 376.255 616.262 375.588Z" fill="#4CA1FF"/>
<path d="M580.023 389.074C574.918 389.422 569.811 388.412 565.223 386.148C562.916 384.985 560.824 383.438 559.035 381.576C557.29 379.695 555.986 377.45 555.219 375.003C556.57 377.058 558.183 378.929 560.017 380.569C561.856 382.125 563.874 383.458 566.027 384.542C568.223 385.626 570.502 386.536 572.841 387.264C575.202 387.99 577.6 388.594 580.023 389.074Z" fill="#4CA1FF"/>
<path d="M559.867 390.271C554.805 389.508 550.037 387.418 546.047 384.216C544.049 382.578 542.344 380.613 541.005 378.405C539.713 376.191 538.93 373.718 538.715 371.165C539.588 373.461 540.757 375.634 542.19 377.629C543.652 379.549 545.335 381.289 547.206 382.814C549.109 384.329 551.128 385.694 553.243 386.896C555.391 388.135 557.602 389.261 559.867 390.271Z" fill="#4CA1FF"/>
<path d="M338.905 445.289C334.65 440.461 329.406 436.601 323.527 433.972C317.649 431.342 311.274 430.004 304.833 430.048C295.293 430.171 286.053 433.314 276.581 432.77C271.593 432.468 266.722 431.135 262.276 428.857C257.831 426.578 253.907 423.404 250.753 419.533C247.599 415.663 245.284 411.181 243.954 406.372C242.624 401.562 242.309 396.529 243.027 391.591C244.117 384.107 248.042 376.622 254.829 373.247C258.605 371.526 262.781 370.867 266.904 371.342C270.675 371.697 274.359 372.676 277.807 374.241C285.657 377.724 292.485 383.848 297.937 390.571C302.884 396.722 314.196 405.771 321.842 411.623C326.325 415.038 329.555 417.338 329.555 417.338C334.925 422.319 335.266 438.948 338.905 445.289Z" fill="#52D2BC"/>
<path d="M255.838 394.231C279.661 401.035 305.978 410.561 324.581 426.891" stroke="#00AD9F" stroke-linecap="round" stroke-linejoin="round"/>
<path d="M409.365 390.884C409.126 394.911 408.079 398.849 406.285 402.464C404.931 404.912 403.191 407.127 401.133 409.023C400.085 410.013 398.984 410.944 397.835 411.813C393.483 415.143 388.592 417.707 383.375 419.393C375.92 421.761 367.947 422.196 361.106 426.388C355.908 429.644 351.973 434.567 349.944 440.35V433.682C350.68 426.306 351.416 418.794 354.169 411.745C356.039 407.193 358.441 402.876 361.324 398.885C365.727 392.392 370.969 386.508 376.915 381.385C381.726 377.303 387.232 373.9 393.106 373.016C398.98 372.131 405.222 374.309 407.92 379.48C409.597 382.8 409.733 386.924 409.365 390.884Z" fill="#5193F4"/>
<path opacity="0.31" d="M354.032 427.476C358.251 417.538 365.291 409.051 374.285 403.063C379.736 399.457 385.815 396.994 391.43 393.619C397.045 390.244 402.455 385.644 405.058 379.48" stroke="#0B43A4" stroke-linecap="round" stroke-linejoin="round"/>
<path d="M344.806 433.532C355.286 423.149 370.155 418.4 384.765 416.304C396.949 414.562 409.76 414.494 421.154 419.134C424.725 420.59 428.241 422.618 430.353 425.83C432.466 429.041 432.765 433.709 430.19 436.567C428.009 438.989 424.479 439.574 421.222 439.683C410.523 440.064 400.043 436.961 389.562 434.77C371.545 431.001 351.92 430.089 335.538 438.485" fill="#52D2BC"/>
<path d="M357.93 428.075C379.614 418.944 410.946 421.883 424.616 431.327" stroke="#00AD9F" stroke-linecap="round" stroke-linejoin="round"/>
<path d="M101.397 321.849C91.5984 317.14 86.8965 304.621 78.842 301.926C68.8658 298.484 66.0583 309.615 49.9355 306.866C36.3886 304.553 32.2182 289.352 9.63548 294.061C2.72573 295.49 -1.86714 301.328 0.735943 308.322C2.68485 315.29 12.2794 319.699 18.0035 323.291C23.0734 326.149 27.5436 327.687 30.5692 332.994L30.6646 333.171C32.6816 337.485 31.8775 341.336 36.593 344.507C47.6459 352.576 61.4245 339.757 74.0038 340.138C82.8761 340.397 82.6308 349.664 93.2884 352.263C103.946 354.863 100.389 345.459 122.549 354.032C122.932 354.179 123.358 354.168 123.734 354.003C124.109 353.837 124.403 353.53 124.553 353.148C124.656 352.875 124.681 352.578 124.623 352.291C124.565 352.005 124.427 351.74 124.226 351.529C108.702 335.267 115.844 328.776 101.397 321.849Z" fill="#4A84D8"/>
<path d="M101.397 321.849C91.5984 317.14 86.8965 304.621 78.842 301.926C68.8658 298.484 66.0583 309.615 49.9355 306.866C36.3886 304.553 32.2182 289.352 9.63548 294.061C2.72573 295.49 -1.86714 301.328 0.735943 308.322C2.68485 315.29 12.2794 319.699 18.0035 323.291C23.0734 326.149 27.5436 327.687 30.5692 332.994L30.6646 333.171C32.6816 337.485 31.8775 341.336 36.593 344.507C47.6459 352.576 61.4245 339.757 74.0038 340.138C82.8761 340.397 82.6308 349.664 93.2884 352.263C103.946 354.863 100.389 345.459 122.549 354.032C122.932 354.179 123.358 354.168 123.734 354.003C124.109 353.837 124.403 353.53 124.553 353.148C124.656 352.875 124.681 352.578 124.623 352.291C124.565 352.005 124.427 351.74 124.226 351.529C108.702 335.267 115.844 328.776 101.397 321.849Z" fill="#00AD9F"/>
<g style="mix-blend-mode:screen" opacity="0.5">
<g style="mix-blend-mode:screen" opacity="0.5">
<path d="M113.936 342.928C105.5 338.573 100.634 329.402 91.762 325.782C89.7704 324.944 87.6265 324.527 85.4655 324.557C82.3718 324.625 79.3462 325.918 76.2389 325.564C71.7823 325.115 68.9884 321.237 65.0497 319.604C60.5386 317.739 55.9321 320.624 51.2575 319.495C46.5829 318.365 42.6305 314.882 38.8827 311.969C31.3429 305.902 21.949 302.598 12.2658 302.607C11.7616 302.607 11.9796 303.968 12.552 303.968C23.455 303.968 32.3136 308.336 40.777 314.854C43.9525 317.317 47.3324 319.903 51.312 320.856C56.0821 322.012 60.8521 319.059 65.4586 321.155C69.0293 322.802 71.6869 326.176 75.721 326.83C80.6955 327.632 85.2611 325.033 90.3173 326.598C99.9528 329.606 105.009 339.662 113.772 344.194C114.386 344.507 114.372 343.187 113.922 342.955L113.936 342.928Z" fill="#4CA1FF"/>
</g>
</g>
<path d="M196.798 387.645C164.553 391.047 159.401 393.823 151.674 390.489C141.82 386.243 131.462 387.291 121.541 383.222C111.619 379.153 100.825 376.051 90.1947 377.779C86.842 378.323 83.135 379.684 82.658 383.603C82.5058 385.189 82.9477 386.774 83.8982 388.053C86.2287 391.306 90.0448 392.394 93.6836 393.401L105.868 396.762C106.715 396.992 107.459 397.504 107.975 398.212C108.492 398.921 108.751 399.785 108.71 400.66C108.669 401.536 108.33 402.372 107.748 403.029C107.167 403.686 106.379 404.125 105.513 404.274H105.404C101.963 404.559 98.4984 404.237 95.1692 403.322C87.8506 401.702 80.5183 399.729 73.0225 399.729C63.9458 399.729 54.3376 402.981 49.8538 411.432C48.2515 414.437 47.6817 417.884 48.2319 421.244C49.8129 430.593 58.5625 433.709 66.3172 433.001C71.7687 432.511 76.934 430.402 82.0856 428.538C94.6649 423.993 105.445 429 118.883 429.354C155.79 430.334 196.798 387.645 196.798 387.645Z" fill="#7EE8D4"/>
<path d="M58.2899 417.12C81.2543 414.508 104.369 411.854 126.433 404.873C132.893 402.832 141.221 402.26 159.456 388.829" stroke="#00AD9F" stroke-linecap="round" stroke-linejoin="round"/>
<path d="M95.4826 284.168C96.2258 284.748 97.0301 285.245 97.8813 285.651C101.82 287.583 106.331 287.856 109.466 291.394C111.564 293.612 112.696 296.592 114.263 299.232C114.582 299.814 114.942 300.374 115.34 300.906C120.191 307.547 124.961 308.309 130.059 308.2C132.157 308.2 134.324 307.955 136.546 307.955C140.344 307.838 144.105 308.725 147.449 310.527C150.376 312.179 153.003 314.314 155.217 316.841C155.491 317.099 155.846 317.253 156.222 317.278C156.597 317.303 156.97 317.196 157.275 316.977C157.571 316.793 157.806 316.525 157.949 316.208C158.092 315.891 158.137 315.538 158.079 315.195C157.095 310.189 154.575 305.614 150.87 302.103C141.834 293.571 128.505 292.891 127.701 275.281C127.537 271.512 128.328 268.831 127.701 266.15C127.316 264.54 126.517 263.058 125.384 261.85C122.658 258.911 118.733 257.604 115.231 255.264C105.691 248.46 110.27 237.478 109.438 226.972C108.88 218.399 101.152 212.82 94.8421 207.921C86.9511 202.123 86.9647 191.659 81.6359 183.888C76.3071 176.118 63.0872 173.002 56.0412 183.426C48.559 193.863 52.6749 206.914 54.8146 217.446C55.3463 220.07 56.3038 222.589 57.6494 224.904C61.5881 231.708 68.3479 236.675 74.1946 242.486C77.8094 246.011 80.7552 250.16 82.8897 254.733C84.1524 257.457 85.0681 260.328 85.6155 263.279C85.7381 263.987 85.8744 264.64 86.0107 265.375C87.3872 272.764 88.9954 279.296 95.4826 284.168Z" fill="#7EE8D4"/>
<g style="mix-blend-mode:screen" opacity="0.5">
<g style="mix-blend-mode:screen" opacity="0.5">
<path d="M61.9015 183.616C62.2831 193.264 63.0191 203.28 70.2559 210.452C73.6358 213.799 77.6972 216.399 80.8863 219.977C82.9686 222.365 84.425 225.231 85.1248 228.319C85.4731 230.133 86.1324 231.873 87.0737 233.463C88.4447 235.077 90.1332 236.393 92.0346 237.328C94.4089 238.85 96.3592 240.948 97.7041 243.425C99.8711 247.262 101.043 251.589 102.992 255.522C103.815 257.263 104.844 258.899 106.058 260.394C107.994 262.707 110.938 264.15 112.246 266.94C114.467 271.675 113.527 277.391 115.68 282.303C120.682 293.748 132.566 299.45 143.251 304.471C143.878 304.771 143.851 303.451 143.401 303.233C133.002 298.293 121.295 292.823 116.362 281.691C114.331 277.146 114.931 272.247 113.445 267.62C111.96 262.993 107.694 261.374 105.268 257.632C101.098 251.317 100.362 242.853 94.4741 237.641C92.5252 235.926 89.7722 235.096 88.0822 233.109C86.0652 230.755 86.0107 227.299 84.9068 224.495C83.3299 221.001 80.9258 217.942 77.9016 215.582C73.6767 211.921 68.9885 208.71 66.3717 203.607C63.2099 197.592 62.9918 190.516 62.692 183.807C62.692 183.113 61.8198 182.704 61.8606 183.616H61.9015Z" fill="#4CA1FF"/>
</g>
</g>
<g style="mix-blend-mode:multiply" opacity="0.37">
<path d="M136.532 307.969C140.33 307.852 144.091 308.739 147.435 310.54C147.79 305.097 149.602 304.009 150.815 302.035C141.779 293.503 128.45 292.823 127.646 275.213C127.483 271.444 128.273 268.763 127.646 266.082C124.921 271.73 120.123 272.886 120.491 278.656C120.859 284.426 128.437 290.114 129.8 297.613C131.013 303.804 133.302 305.383 136.532 307.969Z" fill="#5A4FD1"/>
</g>
<path d="M223.933 396.735C217.841 394.327 209.705 393.347 205.807 398.6C202.536 402.995 204.226 409.228 206.488 414.208C208.396 418.427 210.822 422.7 214.843 424.986C217.687 426.386 220.782 427.205 223.947 427.395C232.707 428.435 241.523 428.944 250.345 428.919C261.524 429.205 272.354 432.868 281.405 439.424C270.543 419.284 244.431 404.818 223.933 396.735Z" fill="#5084DA"/>
<path opacity="0.31" d="M213.234 409.84C220.989 410.167 228.812 410.711 236.253 412.915C243.695 415.12 273.133 428.579 277.712 434.28" stroke="#0B43A4" stroke-linecap="round" stroke-linejoin="round"/>
<path d="M521.57 246.935C521.383 247.83 521.297 248.743 521.311 249.657C521.311 253.848 523.015 257.822 521.311 262.013C520.302 264.735 518.217 266.994 516.623 269.444C516.258 269.964 515.93 270.51 515.641 271.077C512.016 278.044 513.379 282.453 515.641 286.767C516.582 288.536 517.672 290.305 518.613 292.21C520.336 295.418 521.178 299.024 521.052 302.661C520.88 305.87 520.166 309.026 518.94 311.997C518.835 312.342 518.853 312.713 518.993 313.045C519.132 313.378 519.383 313.652 519.703 313.82C519.986 313.993 520.315 314.079 520.647 314.067C520.979 314.055 521.3 313.945 521.57 313.752C525.461 310.767 528.32 306.641 529.747 301.954C533.222 290.591 528.139 278.901 542.899 270.655C546.061 268.899 548.705 268.45 550.749 266.79C551.94 265.781 552.851 264.483 553.393 263.02C554.756 259.428 554.197 255.522 554.756 251.535C556.514 240.567 567.908 239.723 576.562 234.538C583.676 230.456 585.175 221.434 586.661 213.963C588.282 204.736 597.264 200.354 601.652 192.434C606.041 184.514 603.124 171.927 591.158 170.348C579.029 168.389 569.57 177.465 561.407 183.807C559.382 185.376 557.628 187.266 556.214 189.4C551.989 195.7 550.681 203.566 548.173 211.037C546.683 215.622 544.374 219.9 541.359 223.665C539.557 225.897 537.483 227.895 535.185 229.612L533.55 230.851C527.907 235.137 522.987 239.301 521.57 246.935Z" fill="#7EE8D4"/>
<g style="mix-blend-mode:screen" opacity="0.5">
<g style="mix-blend-mode:screen" opacity="0.5">
<path d="M593.407 175.179C585.052 179.738 576.93 184.705 573.986 194.231C572.623 198.585 572.146 203.226 570.279 207.417C569.075 209.953 567.309 212.182 565.114 213.935C563.504 215.114 562.193 216.652 561.284 218.426C560.371 220.603 560.671 223.053 560.194 225.326C559.599 227.812 558.458 230.136 556.855 232.13C554.252 235.6 550.94 238.498 548.5 242.091C545.775 246.037 546.006 251.617 542.408 254.815C539.069 257.781 534.953 259.401 531.982 262.871C524.187 272.002 524.418 284.821 524.65 296.129C524.65 296.823 525.509 297.232 525.482 296.32C525.25 285.039 525.004 272.043 533.291 263.238C536.316 260.013 540.65 258.502 543.662 255.318C546.674 252.134 546.388 247.493 548.65 243.887C552.616 237.505 559.948 233.001 561.161 225.121C561.707 221.61 561.666 218.821 564.46 216.208C566.001 214.958 567.445 213.594 568.78 212.126C571.315 208.9 572.337 204.818 573.25 200.912C574.613 195.469 575.976 190.162 579.983 185.943C583.989 181.725 588.964 179.139 593.857 176.417C594.306 176.172 593.857 174.88 593.366 175.179H593.407Z" fill="#4CA1FF"/>
</g>
</g>
<path d="M486.353 414.916C495.635 420.141 499.423 432.702 507.124 435.845C516.664 439.86 520.112 429.15 535.744 432.879C548.841 436.009 551.88 451.141 574.327 447.997C581.141 447.031 586.047 441.629 583.949 434.621C582.504 427.68 573.386 422.754 568.03 418.917C563.26 415.8 558.967 414.004 556.378 408.615L556.296 408.438C554.592 404.084 555.628 400.369 551.226 396.98C540.936 388.366 526.694 400.028 514.429 398.858C505.774 398.028 506.606 389.047 496.343 385.767C486.081 382.487 488.957 391.972 467.846 382.161C467.665 382.076 467.469 382.028 467.27 382.019C467.071 382.01 466.871 382.041 466.684 382.109C466.496 382.177 466.324 382.282 466.178 382.417C466.031 382.552 465.912 382.715 465.829 382.896C465.708 383.156 465.665 383.446 465.704 383.73C465.742 384.015 465.861 384.282 466.047 384.501C480.071 401.335 472.684 407.214 486.353 414.916Z" fill="#4A84D8"/>
<path d="M486.353 414.916C495.635 420.141 499.423 432.702 507.124 435.845C516.664 439.86 520.112 429.15 535.744 432.879C548.841 436.009 551.88 451.141 574.327 447.997C581.141 447.031 586.047 441.629 583.949 434.621C582.504 427.68 573.386 422.754 568.03 418.917C563.26 415.8 558.967 414.004 556.378 408.615L556.296 408.438C554.592 404.084 555.628 400.369 551.226 396.98C540.936 388.366 526.694 400.028 514.429 398.858C505.774 398.028 506.606 389.047 496.343 385.767C486.081 382.487 488.957 391.972 467.846 382.161C467.665 382.076 467.469 382.028 467.27 382.019C467.071 382.01 466.871 382.041 466.684 382.109C466.496 382.177 466.324 382.282 466.178 382.417C466.031 382.552 465.912 382.715 465.829 382.896C465.708 383.156 465.665 383.446 465.704 383.73C465.742 384.015 465.861 384.282 466.047 384.501C480.071 401.335 472.684 407.214 486.353 414.916Z" fill="#00AD9F"/>
<g style="mix-blend-mode:screen" opacity="0.5">
<g style="mix-blend-mode:screen" opacity="0.5">
<path d="M475.478 393.469C483.655 398.436 487.962 408.329 497.011 412.085C501.904 414.113 506.292 412.004 511.226 412.861C515.696 413.637 518.122 417.814 522.129 419.556C526.34 421.421 530.96 419.053 535.321 420.4C540.01 421.856 543.635 425.653 547.219 428.81C554.115 435.09 562.942 438.847 572.255 439.465C572.868 439.465 572.691 438.104 572.187 438.104C561.475 437.424 553.107 432.661 545.284 425.666C542.641 423.036 539.549 420.897 536.153 419.352C531.328 417.488 525.999 420.332 521.488 417.882C518.245 416.127 516.037 412.793 512.33 411.745C507.601 410.384 502.79 412.766 497.965 411.092C488.425 407.785 484.05 397.252 475.682 392.19C475.096 391.836 475.11 393.17 475.532 393.428L475.478 393.469Z" fill="#4CA1FF"/>
</g>
</g>
<path d="M154.754 389.523C154.754 389.523 114.29 380.677 83.1623 384.011C82.181 384.12 83.3803 377.997 83.3803 377.997C83.3803 377.997 76.9749 384.801 75.353 385.046C58.2354 387.767 41.5539 393.66 30.1876 405.2C30.1876 405.2 50.8895 320.27 164.294 332.899L154.754 389.523Z" fill="#5084DA"/>
<path d="M178.277 394.082C178.277 394.082 160.151 385.917 137.513 368.308C136.614 367.6 140.716 362.184 140.716 362.184C140.716 362.184 131.694 363.654 130.127 362.334C104.232 340.56 74.508 306.893 59.5574 259.537C59.5574 259.537 84.4025 260.585 119.169 273.267C120.655 273.812 124.621 281.215 124.621 281.215C124.621 281.215 126.243 275.948 127.551 276.479C168.084 292.894 204.276 318.428 233.31 351.093L178.277 394.082Z" fill="#5193F4"/>
<g style="mix-blend-mode:multiply" opacity="0.4">
<g style="mix-blend-mode:multiply" opacity="0.4">
<path d="M59.5574 260.693C74.7415 267.548 89.5006 275.305 103.755 283.923C118.093 292.428 131.912 301.763 145.391 311.561C152.205 316.419 158.611 321.713 165.18 326.83L174.72 334.872C176.301 336.233 177.923 337.594 179.49 338.955L184.083 343.187C196.444 354.348 208.109 366.255 219.013 378.84L210.209 370.009L205.793 365.531C204.308 364.089 202.754 362.701 201.241 361.272L192.178 352.726L182.815 344.561C176.628 339.036 170.1 333.892 163.735 328.571C157.152 323.523 150.679 318.324 143.905 313.534C130.604 303.614 116.812 294.347 102.733 285.529C95.7007 281.11 88.5819 276.833 81.3769 272.696C74.1719 268.559 66.8987 264.558 59.5574 260.693Z" fill="#5084DA"/>
</g>
<g style="mix-blend-mode:multiply" opacity="0.4">
<path d="M154.427 319.794C150.338 318.787 146.249 317.903 142.161 316.991C138.072 316.079 133.984 315.317 129.895 314.65C125.806 313.983 121.636 313.466 117.479 313.058C113.323 312.65 109.139 312.554 104.886 312.568C109.044 311.627 113.298 311.17 117.561 311.207C121.826 311.247 126.081 311.611 130.29 312.296C138.651 313.641 146.777 316.166 154.427 319.794Z" fill="#5084DA"/>
</g>
<g style="mix-blend-mode:multiply" opacity="0.4">
<path d="M114.604 292.578C111.673 292.401 108.757 292.292 105.854 292.183C102.951 292.074 100.048 292.047 97.1453 292.101C94.2424 292.156 91.3667 292.319 88.4775 292.55C85.5882 292.782 82.7262 293.231 79.8232 293.775C82.5399 292.597 85.3847 291.738 88.3003 291.217C91.2145 290.721 94.1623 290.448 97.1181 290.4C103.021 290.291 108.909 291.024 114.604 292.578Z" fill="#5084DA"/>
</g>
<g style="mix-blend-mode:multiply" opacity="0.4">
<path d="M190.338 349.923C186.69 348.372 182.932 347.094 179.095 346.099C175.31 345.081 171.45 344.366 167.551 343.962C163.662 343.511 159.741 343.388 155.83 343.595C151.869 343.82 147.923 344.275 144.014 344.956C147.732 343.373 151.647 342.302 155.653 341.771C159.683 341.207 163.768 341.157 167.81 341.622C171.85 342.045 175.822 342.959 179.64 344.343C183.467 345.654 187.074 347.536 190.338 349.923Z" fill="#5084DA"/>
</g>
<g style="mix-blend-mode:multiply" opacity="0.4">
<path d="M154.427 319.794C151.514 314.85 148.329 310.071 144.887 305.478C143.21 303.192 141.384 301.015 139.435 298.892C137.486 296.769 135.51 294.809 133.479 292.632C136.123 293.936 138.576 295.593 140.771 297.558C142.992 299.501 145.002 301.672 146.767 304.036C148.54 306.385 150.087 308.895 151.387 311.534C152.752 314.145 153.773 316.922 154.427 319.794Z" fill="#5084DA"/>
</g>
<g style="mix-blend-mode:multiply" opacity="0.4">
<path d="M189.902 349.12C188.335 345.976 186.713 342.901 185.132 339.825C183.551 336.75 181.861 333.743 180.103 330.79C178.345 327.837 176.464 324.965 174.502 322.148C172.458 319.346 170.275 316.648 167.96 314.065C170.939 315.982 173.636 318.304 175.974 320.964C178.292 323.641 180.371 326.514 182.188 329.551C185.81 335.611 188.415 342.221 189.902 349.12Z" fill="#5084DA"/>
</g>
</g>
<g style="mix-blend-mode:screen" opacity="0.5">
<g style="mix-blend-mode:screen" opacity="0.5">
<path d="M47.5914 386.624C52.7566 379.589 59.8572 374.118 67.353 369.682C74.9785 365.32 83.1754 362.041 91.7075 359.938L98.1402 358.578C100.28 358.101 102.474 357.952 104.641 357.639C108.981 357.088 113.35 356.802 117.725 356.781C119.905 356.645 122.086 356.863 124.266 356.945L130.795 357.258C135.115 357.802 139.435 358.401 143.715 359.081C139.353 358.945 135.047 358.591 130.726 358.441H124.239C122.086 358.441 119.919 358.36 117.779 358.618C113.486 359.027 109.166 359.095 104.941 359.884C102.828 360.238 100.662 360.387 98.5763 360.877L92.2935 362.238C83.9589 364.298 75.8947 367.326 68.2661 371.26C66.3551 372.242 64.4947 373.318 62.692 374.486C61.7925 375.057 60.8521 375.615 59.9662 376.214L57.3495 378.092C53.8101 380.591 50.5399 383.451 47.5914 386.624Z" fill="#4CA1FF"/>
</g>
</g>
<g style="mix-blend-mode:screen" opacity="0.5">
<g style="mix-blend-mode:screen" opacity="0.5">
<path d="M117.588 357.897C115.231 361.653 112.927 365.205 111.019 368.961C109.031 372.723 107.594 376.752 106.754 380.922C105.909 376.455 106.656 371.833 108.866 367.858C109.902 365.877 111.16 364.019 112.614 362.32C114.042 360.606 115.719 359.116 117.588 357.897Z" fill="#4CA1FF"/>
</g>
</g>
<path d="M363.314 385.141H296.288V431.164H363.314V385.141Z" fill="#0056EC"/>
<g style="mix-blend-mode:multiply" opacity="0.5">
<path d="M363.314 385.141H296.288V401.825H363.314V385.141Z" fill="#605ACA"/>
</g>
<path d="M397.822 430.443H261.78C259.716 430.443 257.737 431.262 256.277 432.719C254.818 434.176 253.998 436.152 253.998 438.213C253.998 440.274 254.818 442.25 256.277 443.708C257.737 445.165 259.716 445.983 261.78 445.983H397.822C399.885 445.983 401.865 445.165 403.324 443.708C404.784 442.25 405.604 440.274 405.604 438.213C405.604 436.152 404.784 434.176 403.324 432.719C401.865 431.262 399.885 430.443 397.822 430.443Z" fill="#0056EC"/>
<g style="mix-blend-mode:multiply" opacity="0.5">
<path d="M405.603 438.186C405.6 440.244 404.778 442.217 403.319 443.672C401.86 445.126 399.883 445.943 397.821 445.943H261.78C259.718 445.943 257.741 445.126 256.282 443.672C254.823 442.217 254.002 440.244 253.998 438.186C253.992 437.552 254.074 436.919 254.243 436.308C254.658 437.991 255.626 439.486 256.992 440.554C258.359 441.622 260.044 442.202 261.78 442.2H397.821C399.557 442.202 401.243 441.622 402.609 440.554C403.975 439.486 404.943 437.991 405.358 436.308C405.527 436.919 405.61 437.552 405.603 438.186Z" fill="#605ACA"/>
</g>
<path d="M539.505 105.464H120.096C117.462 105.464 115.326 107.596 115.326 110.227V386.788C115.326 389.418 117.462 391.55 120.096 391.55H539.505C542.14 391.55 544.275 389.418 544.275 386.788V110.227C544.275 107.596 542.14 105.464 539.505 105.464Z" fill="white"/>
<path d="M539.505 108.866C539.867 108.866 540.214 109.009 540.469 109.265C540.725 109.52 540.868 109.866 540.868 110.227V386.788C540.868 387.148 540.725 387.495 540.469 387.75C540.214 388.005 539.867 388.148 539.505 388.148H120.096C119.735 388.148 119.388 388.005 119.132 387.75C118.877 387.495 118.733 387.148 118.733 386.788V110.227C118.733 109.866 118.877 109.52 119.132 109.265C119.388 109.009 119.735 108.866 120.096 108.866H539.505ZM539.505 102.062H120.096C117.927 102.062 115.847 102.922 114.314 104.453C112.78 105.985 111.919 108.061 111.919 110.227V386.788C111.919 388.953 112.78 391.03 114.314 392.561C115.847 394.092 117.927 394.953 120.096 394.953H539.505C541.674 394.953 543.754 394.092 545.288 392.561C546.821 391.03 547.683 388.953 547.683 386.788V110.227C547.683 108.061 546.821 105.985 545.288 104.453C543.754 102.922 541.674 102.062 539.505 102.062Z" fill="#0056EC"/>
<path d="M547.683 386.23V359.258H111.919V386.298C111.919 388.741 112.891 391.084 114.621 392.812C116.352 394.54 118.698 395.51 121.145 395.51H538.456C539.673 395.51 540.879 395.27 542.003 394.803C543.127 394.335 544.147 393.651 545.004 392.788C545.862 391.925 546.54 390.902 547 389.776C547.46 388.65 547.692 387.445 547.683 386.23Z" fill="#0056EC"/>
<path d="M329.801 198.041C348.355 198.041 363.395 183.023 363.395 164.497C363.395 145.971 348.355 130.952 329.801 130.952C311.247 130.952 296.206 145.971 296.206 164.497C296.206 183.023 311.247 198.041 329.801 198.041Z" fill="#C8EEFB"/>
<path d="M342.789 156.835C342.789 159.397 342.028 161.902 340.602 164.033C339.177 166.163 337.15 167.824 334.78 168.804C332.409 169.785 329.8 170.041 327.283 169.541C324.766 169.041 322.455 167.808 320.64 165.996C318.825 164.184 317.59 161.876 317.089 159.363C316.589 156.85 316.845 154.245 317.827 151.878C318.81 149.51 320.472 147.487 322.606 146.063C324.74 144.64 327.248 143.88 329.814 143.88C333.255 143.88 336.556 145.245 338.989 147.675C341.422 150.104 342.789 153.399 342.789 156.835ZM349.399 211.105V188.461C349.406 186.409 349.007 184.376 348.225 182.478C347.444 180.581 346.294 178.856 344.843 177.403C343.392 175.95 341.667 174.798 339.769 174.012C337.87 173.227 335.835 172.823 333.78 172.825H325.821C321.683 172.825 317.713 174.466 314.787 177.389C311.86 180.311 310.216 184.274 310.216 188.406V211.05C310.216 212.195 310.671 213.292 311.482 214.101C312.292 214.91 313.391 215.364 314.537 215.364H345.065C346.201 215.364 347.292 214.917 348.101 214.12C348.909 213.323 349.371 212.24 349.385 211.105H349.399Z" fill="#5084DA"/>
<path d="M410.224 236.185H249.405C245.881 236.185 242.501 234.787 240.009 232.299C237.517 229.811 236.117 226.436 236.117 222.917C236.117 219.398 237.517 216.023 240.009 213.535C242.501 211.047 245.881 209.649 249.405 209.649H410.224C413.748 209.649 417.128 211.047 419.62 213.535C422.112 216.023 423.512 219.398 423.512 222.917C423.512 226.436 422.112 229.811 419.62 232.299C417.128 234.787 413.748 236.185 410.224 236.185Z" fill="#C8EEFB"/>
<path d="M404.595 226.387H255.02C254.098 226.387 253.214 226.021 252.563 225.371C251.911 224.72 251.545 223.837 251.545 222.917C251.545 221.997 251.911 221.114 252.563 220.463C253.214 219.812 254.098 219.447 255.02 219.447H404.595C405.517 219.447 406.401 219.812 407.052 220.463C407.704 221.114 408.07 221.997 408.07 222.917C408.07 223.837 407.704 224.72 407.052 225.371C406.401 226.021 405.517 226.387 404.595 226.387Z" fill="#5084DA"/>
<path d="M410.292 283.923H249.569C246.044 283.923 242.665 282.525 240.173 280.037C237.681 277.548 236.281 274.174 236.281 270.655C236.281 267.136 237.681 263.761 240.173 261.273C242.665 258.784 246.044 257.387 249.569 257.387H410.292C413.816 257.387 417.196 258.784 419.688 261.273C422.18 263.761 423.58 267.136 423.58 270.655C423.58 274.174 422.18 277.548 419.688 280.037C417.196 282.525 413.816 283.923 410.292 283.923Z" fill="#C8EEFB"/>
<path d="M253.684 274.356C252.763 274.356 251.879 273.991 251.227 273.34C250.575 272.689 250.209 271.806 250.209 270.886C250.209 270.43 250.299 269.979 250.474 269.558C250.648 269.137 250.904 268.754 251.227 268.432C251.55 268.11 251.933 267.854 252.354 267.68C252.776 267.506 253.228 267.416 253.684 267.416C254.141 267.416 254.593 267.506 255.014 267.68C255.436 267.854 255.819 268.11 256.142 268.432C256.465 268.754 256.721 269.137 256.895 269.558C257.07 269.979 257.16 270.43 257.16 270.886C257.16 271.806 256.794 272.689 256.142 273.34C255.49 273.991 254.606 274.356 253.684 274.356ZM267.477 270.886C267.477 270.43 267.387 269.979 267.212 269.558C267.037 269.137 266.781 268.754 266.459 268.432C266.136 268.11 265.753 267.854 265.331 267.68C264.91 267.506 264.458 267.416 264.001 267.416C263.545 267.416 263.093 267.506 262.671 267.68C262.25 267.854 261.867 268.11 261.544 268.432C261.221 268.754 260.965 269.137 260.791 269.558C260.616 269.979 260.526 270.43 260.526 270.886C260.526 271.806 260.892 272.689 261.544 273.34C262.196 273.991 263.08 274.356 264.001 274.356C264.921 274.352 265.801 273.985 266.45 273.335C267.099 272.685 267.463 271.804 267.463 270.886H267.477ZM277.794 270.886C277.794 270.43 277.704 269.979 277.529 269.558C277.354 269.137 277.098 268.754 276.776 268.432C276.453 268.11 276.07 267.854 275.648 267.68C275.227 267.506 274.775 267.416 274.318 267.416C273.862 267.416 273.41 267.506 272.988 267.68C272.567 267.854 272.184 268.11 271.861 268.432C271.538 268.754 271.282 269.137 271.107 269.558C270.933 269.979 270.843 270.43 270.843 270.886C270.843 271.806 271.209 272.689 271.861 273.34C272.513 273.991 273.397 274.356 274.318 274.356C275.24 274.356 276.124 273.991 276.776 273.34C277.427 272.689 277.794 271.806 277.794 270.886ZM288.11 270.886C288.11 270.43 288.021 269.979 287.846 269.558C287.671 269.137 287.415 268.754 287.093 268.432C286.77 268.11 286.387 267.854 285.965 267.68C285.543 267.506 285.092 267.416 284.635 267.416C284.179 267.416 283.727 267.506 283.305 267.68C282.884 267.854 282.5 268.11 282.178 268.432C281.855 268.754 281.599 269.137 281.424 269.558C281.25 269.979 281.16 270.43 281.16 270.886C281.16 271.806 281.526 272.689 282.178 273.34C282.83 273.991 283.713 274.356 284.635 274.356C285.557 274.356 286.441 273.991 287.093 273.34C287.744 272.689 288.11 271.806 288.11 270.886ZM298.427 270.886C298.427 270.43 298.338 269.979 298.163 269.558C297.988 269.137 297.732 268.754 297.41 268.432C297.087 268.11 296.704 267.854 296.282 267.68C295.86 267.506 295.408 267.416 294.952 267.416C294.496 267.416 294.044 267.506 293.622 267.68C293.201 267.854 292.817 268.11 292.495 268.432C292.172 268.754 291.916 269.137 291.741 269.558C291.567 269.979 291.477 270.43 291.477 270.886C291.477 271.806 291.843 272.689 292.495 273.34C293.146 273.991 294.03 274.356 294.952 274.356C295.412 274.362 295.868 274.276 296.295 274.104C296.721 273.932 297.109 273.677 297.436 273.354C297.763 273.032 298.023 272.647 298.2 272.223C298.377 271.8 298.468 271.345 298.468 270.886H298.427ZM308.744 270.886C308.744 270.43 308.654 269.979 308.48 269.558C308.305 269.137 308.049 268.754 307.726 268.432C307.404 268.11 307.021 267.854 306.599 267.68C306.177 267.506 305.725 267.416 305.269 267.416C304.813 267.416 304.361 267.506 303.939 267.68C303.517 267.854 303.134 268.11 302.812 268.432C302.489 268.754 302.233 269.137 302.058 269.558C301.884 269.979 301.794 270.43 301.794 270.886C301.794 271.806 302.16 272.689 302.812 273.34C303.463 273.991 304.347 274.356 305.269 274.356C305.727 274.358 306.18 274.269 306.603 274.096C307.026 273.922 307.411 273.667 307.735 273.345C308.059 273.022 308.317 272.639 308.492 272.217C308.668 271.795 308.758 271.343 308.758 270.886H308.744ZM319.061 270.886C319.061 270.43 318.971 269.979 318.797 269.558C318.622 269.137 318.366 268.754 318.043 268.432C317.721 268.11 317.338 267.854 316.916 267.68C316.494 267.506 316.042 267.416 315.586 267.416C315.13 267.416 314.678 267.506 314.256 267.68C313.834 267.854 313.451 268.11 313.129 268.432C312.806 268.754 312.55 269.137 312.375 269.558C312.201 269.979 312.111 270.43 312.111 270.886C312.111 271.806 312.477 272.689 313.129 273.34C313.78 273.991 314.664 274.356 315.586 274.356C316.043 274.358 316.497 274.269 316.92 274.096C317.343 273.922 317.728 273.667 318.052 273.345C318.376 273.022 318.634 272.639 318.809 272.217C318.985 271.795 319.075 271.343 319.075 270.886H319.061Z" fill="#5084DA"/>
<path d="M352.629 333.933H306.973C303.448 333.933 300.069 332.535 297.577 330.047C295.085 327.559 293.685 324.184 293.685 320.665C293.685 317.146 295.085 313.771 297.577 311.283C300.069 308.795 303.448 307.397 306.973 307.397H352.629C356.153 307.397 359.533 308.795 362.025 311.283C364.517 313.771 365.917 317.146 365.917 320.665C365.917 324.184 364.517 327.559 362.025 330.047C359.533 332.535 356.153 333.933 352.629 333.933Z" fill="#5084DA"/>
<g style="mix-blend-mode:multiply" opacity="0.09">
<path d="M498.319 394.708V379.534C498.319 377.138 497.366 374.84 495.669 373.145C493.972 371.45 491.67 370.498 489.27 370.498H488.48V356.441C488.48 346.502 484.525 336.969 477.486 329.941C470.447 322.912 460.901 318.964 450.946 318.964C440.992 318.964 431.445 322.912 424.406 329.941C417.367 336.969 413.413 346.502 413.413 356.441V370.498H412.622C410.222 370.498 407.92 371.45 406.223 373.145C404.526 374.84 403.573 377.138 403.573 379.534V394.708H498.319ZM425.815 356.441C425.815 349.786 428.463 343.403 433.176 338.697C437.889 333.991 444.281 331.347 450.946 331.347C457.611 331.347 464.004 333.991 468.717 338.697C473.43 343.403 476.077 349.786 476.077 356.441V370.498H425.815V356.441Z" fill="black"/>
</g>
<g style="mix-blend-mode:multiply" opacity="0.09">
<path d="M516.05 252.542C512.182 249.372 507.416 247.493 502.422 247.167C502.422 246.663 502.422 246.173 502.422 245.534C505.147 245.085 507.573 242.662 508.964 239.396C512.711 235.79 515.26 231.327 514.02 225.707C513.986 225.566 513.981 225.42 514.004 225.278C514.028 225.135 514.079 224.999 514.156 224.876C512.548 221.992 509.577 220.617 506.279 217.637C495.199 207.608 482.033 221.542 487.021 227.272C487.649 228.24 488.11 229.308 488.384 230.429V230.524C488.248 231.177 488.25 231.85 488.391 232.502C488.532 233.154 488.808 233.769 489.202 234.307C489.263 234.872 489.295 235.44 489.297 236.008C489.302 236.062 489.302 236.117 489.297 236.171C489.456 237.007 489.77 237.806 490.224 238.526C490.51 240.022 491.181 241.418 492.17 242.577C493.159 243.736 494.433 244.619 495.866 245.139C496.125 245.221 496.398 245.316 496.684 245.384C496.86 245.971 496.902 246.589 496.807 247.194C493.669 247.53 490.642 248.542 487.934 250.161C466.755 260.38 445.808 293.326 448.125 300.593C450.442 307.86 456.302 316.365 460.227 322.039L460.841 321.931L461.795 325.21C461.826 325.547 461.932 325.873 462.106 326.164C462.28 326.455 462.516 326.703 462.798 326.891C463.08 327.079 463.401 327.201 463.737 327.25C464.072 327.298 464.415 327.271 464.738 327.17C465.684 327.236 466.624 326.971 467.396 326.421C467.779 326.05 468.048 325.578 468.173 325.06C468.473 323.606 468.22 322.093 467.464 320.815L467.927 320.733C467.927 320.733 458.796 307.125 459.123 298.769C459.246 295.735 466.374 288.563 472.166 283.229C472.03 285.079 471.962 286.971 471.962 288.876L469.236 355.176C469.236 355.176 471.634 355.652 475.478 356.264L479.212 395.864H494.204L494.558 358.564H495.144H495.662L497.883 358.714H498.633H499.437L500.909 395.701H515.71L518.735 358.033L520.534 357.707L521.297 357.543L522.742 357.19L523.492 356.985C523.969 356.849 524.418 356.7 524.855 356.55L525.468 356.332C526.095 356.101 526.708 355.842 527.267 355.57L526.967 283.855C526.967 282.303 526.967 280.806 526.831 279.337V279.01C526.74 277.64 526.613 276.311 526.449 275.023V274.642V274.288C529.379 274.873 533.182 275.567 538.17 276.411C541.309 276.921 544.522 276.721 547.574 275.826V261.415C535.226 262.83 521.352 255.74 516.05 252.542Z" fill="black"/>
</g>
<path opacity="0.3" d="M313.882 292.605C326.633 292.605 336.969 282.284 336.969 269.552C336.969 256.821 326.633 246.5 313.882 246.5C301.132 246.5 290.795 256.821 290.795 269.552C290.795 282.284 301.132 292.605 313.882 292.605Z" fill="#94EBFF"/>
<path opacity="0.5" d="M313.882 282.058C320.8 282.058 326.407 276.459 326.407 269.552C326.407 262.646 320.8 257.046 313.882 257.046C306.965 257.046 301.358 262.646 301.358 269.552C301.358 276.459 306.965 282.058 313.882 282.058Z" fill="#94EBFF"/>
<path d="M441.57 318.964C431.618 318.975 422.078 322.927 415.041 329.953C408.005 336.979 404.047 346.505 404.036 356.441V392.489H479.103V356.441C479.092 346.505 475.134 336.979 468.098 329.953C461.061 322.927 451.521 318.975 441.57 318.964ZM416.438 380.092V356.441C416.438 349.786 419.086 343.403 423.799 338.697C428.512 333.991 434.904 331.347 441.57 331.347C448.235 331.347 454.627 333.991 459.34 338.697C464.053 343.403 466.701 349.786 466.701 356.441V380.092H416.438Z" fill="#F9714E"/>
<g style="mix-blend-mode:multiply" opacity="0.4">
<path d="M441.57 326.367C437.632 326.367 433.733 327.141 430.096 328.646C426.458 330.15 423.152 332.356 420.368 335.136C417.584 337.916 415.376 341.216 413.869 344.848C412.362 348.48 411.586 352.373 411.586 356.305V385.114H471.553V356.291C471.549 348.354 468.389 340.742 462.766 335.131C457.144 329.519 449.519 326.367 441.57 326.367ZM466.701 380.092H416.452V356.441C416.452 349.786 419.1 343.403 423.813 338.697C428.526 333.991 434.918 331.347 441.583 331.347C448.248 331.347 454.641 333.991 459.354 338.697C464.067 343.403 466.715 349.786 466.715 356.441L466.701 380.092Z" fill="#F9714E"/>
</g>
<path d="M479.73 370.498H403.437C398.341 370.498 394.21 374.623 394.21 379.711V436.757C394.21 441.845 398.341 445.97 403.437 445.97H479.73C484.826 445.97 488.957 441.845 488.957 436.757V379.711C488.957 374.623 484.826 370.498 479.73 370.498Z" fill="#FFB255"/>
<path d="M455.348 403.009C455.343 400.568 454.687 398.173 453.449 396.069C452.211 393.965 450.434 392.228 448.302 391.036C446.169 389.843 443.758 389.239 441.314 389.284C438.871 389.329 436.483 390.023 434.396 391.293C432.31 392.564 430.599 394.365 429.44 396.514C428.28 398.662 427.714 401.08 427.799 403.519C427.884 405.957 428.618 408.33 429.924 410.392C431.23 412.455 433.062 414.134 435.232 415.256V430.021H447.907V415.215C450.149 414.057 452.029 412.306 453.341 410.153C454.654 408.001 455.348 405.529 455.348 403.009Z" fill="#F9714E"/>
<g style="mix-blend-mode:multiply" opacity="0.4">
<path d="M479.907 370.498H457.147C452.146 385.945 444.521 400.418 434.605 413.283C425.447 425.163 411.041 440.227 394.728 439.914C395.346 441.682 396.499 443.214 398.028 444.299C399.556 445.384 401.384 445.967 403.259 445.97H479.907C482.307 445.97 484.609 445.018 486.306 443.323C488.003 441.629 488.957 439.33 488.957 436.934V379.534C488.957 377.138 488.003 374.84 486.306 373.145C484.609 371.45 482.307 370.498 479.907 370.498Z" fill="#FFB255"/>
</g>
<path d="M450.742 318.978L452.554 325.21C452.586 325.547 452.692 325.873 452.866 326.164C453.039 326.455 453.276 326.703 453.558 326.891C453.84 327.079 454.161 327.201 454.496 327.25C454.832 327.298 455.174 327.271 455.498 327.17C456.444 327.236 457.384 326.971 458.156 326.421C458.538 326.05 458.808 325.578 458.933 325.06C459.25 323.496 458.942 321.869 458.074 320.529C457.208 319.207 456.172 318.004 454.994 316.95" fill="#FFC2D3"/>
<path d="M562.865 247.221C563.599 244.321 564.593 241.493 565.836 238.771C566.373 239.676 566.539 240.753 566.299 241.778C566.956 240.236 568.16 238.991 569.679 238.281C569.762 238.23 569.854 238.196 569.95 238.182C570.046 238.168 570.144 238.174 570.238 238.199C570.332 238.256 570.411 238.333 570.47 238.425C570.529 238.517 570.566 238.621 570.579 238.73C571.161 240.978 570.9 243.361 569.846 245.431C568.792 247.501 567.017 249.115 564.855 249.97" fill="#FFC2D3"/>
<path d="M501.631 440.908C506.933 442.2 511.376 443.752 513.802 445.943H493.359L493.754 441.207L501.631 440.908Z" fill="#5084DA"/>
<path d="M476.636 440.908C471.335 442.2 466.892 443.752 464.466 445.943H484.909L484.514 441.207L476.636 440.908Z" fill="#5084DA"/>
<path d="M512.439 322.026L502.803 441.779C501.316 442.156 499.804 442.429 498.279 442.595C497.39 442.531 496.507 442.408 495.635 442.228C494.517 441.996 493.549 441.779 493.549 441.779L489.938 351.256H485.413L484.541 441.779C482.938 442.226 481.285 442.469 479.621 442.5C477.825 442.442 476.039 442.2 474.292 441.779L462.721 318.964L512.439 322.026Z" fill="#2E2C84"/>
<g style="mix-blend-mode:multiply" opacity="0.3">
<g style="mix-blend-mode:multiply" opacity="0.5">
<path d="M493.904 320.883L476.936 319.794C476.732 341.853 480.057 420.672 480.398 442.418C481.781 442.327 483.151 442.094 484.486 441.724L485.359 351.202H489.883L493.495 441.724C493.495 441.724 494.463 441.955 495.58 442.173L496.575 442.35C496.561 417.774 494.326 331.021 493.904 320.883Z" fill="#2E2C84"/>
</g>
</g>
<path d="M479.975 236.008C479.98 236.062 479.98 236.117 479.975 236.171C480.711 240.131 484.473 242.159 488.657 243.316C492.064 244.255 492.841 244.676 495.58 242.69C501.25 238.607 506.279 233.164 504.643 225.707C504.61 225.566 504.604 225.42 504.628 225.278C504.651 225.135 504.703 224.999 504.779 224.876C503.171 221.992 500.2 220.617 496.902 217.637C485.822 207.608 472.657 221.542 477.645 227.272C479.166 229.933 479.969 232.943 479.975 236.008Z" fill="#001F64"/>
<path d="M517.768 283.964C517.768 261.197 508.337 247.044 490.265 247.044C472.193 247.044 462.708 266.096 462.708 288.849L459.982 355.148C459.982 355.148 502.108 363.49 518.122 355.679L517.768 283.964Z" fill="#8FC2FF"/>
<g style="mix-blend-mode:multiply" opacity="0.3">
<path d="M517.768 283.964C517.853 278.236 517.114 272.526 515.573 267.008C513.965 291.775 511.798 357.734 474.865 357.475C488.589 359.19 508.241 360.483 518.067 355.693L517.768 283.964Z" fill="#8FC2FF"/>
</g>
<path d="M499.546 233.341C498.865 228.864 494.871 224.373 490.006 226.7C488.646 227.447 487.13 227.864 485.578 227.916C484.027 227.968 482.486 227.654 481.079 226.999C480.997 227.857 480.902 229.122 480.807 230.442C480.261 229.449 479.362 229.299 479.089 230.538C478.817 231.776 479.158 234.321 480.589 234.783C480.589 235.015 480.589 235.246 480.589 235.436C480.589 238.784 482.02 244.119 487.403 245.384C487.664 246.424 487.612 247.517 487.253 248.528C487.553 249.575 491.791 250.256 493.181 249.018C493.064 247.86 493.027 246.696 493.072 245.534C496.289 245.017 498.974 241.846 500.187 237.777C505.093 235.069 501.618 230.116 499.546 233.341Z" fill="#FFC2D3"/>
<g style="mix-blend-mode:multiply" opacity="0.3">
<path d="M499.546 233.341C499.27 231.542 498.507 229.852 497.338 228.455C497.475 236.239 494.149 243.425 486.626 245.153C486.885 245.234 487.158 245.33 487.444 245.398C487.705 246.437 487.653 247.531 487.294 248.541C487.594 249.589 491.832 250.269 493.222 249.031C493.105 247.874 493.068 246.71 493.113 245.547C496.33 245.03 499.015 241.86 500.228 237.791C505.093 235.069 501.618 230.116 499.546 233.341Z" fill="#FFC2D3"/>
</g>
<path d="M478.694 250.161C457.515 260.38 436.568 293.326 438.885 300.593C441.202 307.86 447.062 316.365 450.987 322.039L458.687 320.679C458.687 320.679 449.556 307.07 449.897 298.715C450.101 293.585 470.34 276.683 470.34 276.683L478.694 250.161Z" fill="#8FC2FF"/>
<path d="M504.793 251.317C508.105 253.699 535.785 270.26 551.008 255.631C562.006 245.071 563.11 243.03 563.11 243.03L566.886 249.698C566.886 249.698 549.686 280.004 528.875 276.506C508.064 273.009 507.546 271.92 507.546 271.92L504.793 251.317Z" fill="#8FC2FF"/>
<g style="mix-blend-mode:multiply" opacity="0.09">
<path d="M162.686 381.031C154.841 383.313 148.109 388.393 143.769 395.306H199.987C195.648 388.393 188.916 383.313 181.071 381.031V243.479H162.686V245.724H143.101V262.286H162.74V266.232H143.101V282.78H162.74L162.686 381.031Z" fill="black"/>
</g>
<path d="M155.094 262.286H178.645V245.724H155.094V262.286Z" fill="#FFB255"/>
<path d="M155.094 282.793H178.645V266.232H155.094V282.793Z" fill="#FFB255"/>
<g style="mix-blend-mode:multiply" opacity="0.5">
<path d="M172.635 262.286H178.645V245.724H172.635V262.286Z" fill="#FFC87C"/>
</g>
<g style="mix-blend-mode:multiply" opacity="0.5">
<path d="M172.635 282.793H178.645V266.232H172.635V282.793Z" fill="#FFC87C"/>
</g>
<path d="M174.733 387.386H193.119L193.119 243.493H174.733L174.733 387.386Z" fill="#FFB255"/>
<g style="mix-blend-mode:multiply" opacity="0.5">
<path d="M183.633 392.34H184.205C184.823 392.34 185.323 391.84 185.323 391.224L185.323 249.562C185.323 248.946 184.823 248.446 184.205 248.446H183.633C183.016 248.446 182.516 248.946 182.516 249.562L182.516 391.224C182.516 391.84 183.016 392.34 183.633 392.34Z" fill="#FFC87C"/>
</g>
<path d="M150.733 412.847C150.731 406.293 152.675 399.884 156.321 394.433C159.966 388.982 165.149 384.732 171.213 382.223C177.278 379.713 183.951 379.056 190.39 380.334C196.829 381.612 202.743 384.768 207.385 389.403C212.027 394.038 215.188 399.944 216.468 406.373C217.748 412.802 217.09 419.465 214.576 425.521C212.063 431.576 207.807 436.751 202.348 440.391C196.888 444.031 190.47 445.973 183.906 445.97C175.111 445.959 166.68 442.466 160.461 436.257C154.243 430.047 150.744 421.629 150.733 412.847ZM167.837 412.847C167.837 416.021 168.78 419.123 170.545 421.761C172.311 424.399 174.821 426.456 177.757 427.67C180.693 428.885 183.923 429.202 187.04 428.583C190.157 427.964 193.02 426.436 195.268 424.192C197.515 421.948 199.045 419.09 199.665 415.977C200.285 412.865 199.967 409.639 198.751 406.708C197.535 403.776 195.475 401.27 192.833 399.507C190.19 397.744 187.084 396.803 183.906 396.803C179.649 396.814 175.569 398.508 172.56 401.515C169.552 404.522 167.858 408.597 167.851 412.847H167.837Z" fill="#FFB255"/>
<g style="mix-blend-mode:multiply" opacity="0.5">
<path d="M166.27 412.847C166.27 416.33 167.304 419.735 169.242 422.63C171.18 425.526 173.934 427.783 177.157 429.116C180.379 430.449 183.925 430.798 187.346 430.118C190.767 429.439 193.909 427.762 196.376 425.299C198.842 422.836 200.522 419.699 201.202 416.283C201.883 412.867 201.533 409.326 200.199 406.109C198.864 402.891 196.603 400.141 193.703 398.206C190.803 396.271 187.394 395.238 183.906 395.238C179.235 395.26 174.762 397.122 171.459 400.42C168.156 403.717 166.292 408.184 166.27 412.847ZM167.837 412.847C167.837 409.674 168.78 406.572 170.545 403.934C172.311 401.295 174.82 399.239 177.756 398.025C180.693 396.81 183.923 396.492 187.04 397.111C190.157 397.731 193.02 399.259 195.268 401.502C197.515 403.746 199.045 406.605 199.665 409.717C200.285 412.83 199.967 416.056 198.751 418.987C197.534 421.919 195.475 424.425 192.833 426.188C190.19 427.95 187.084 428.891 183.906 428.891C179.649 428.881 175.569 427.186 172.56 424.18C169.551 421.173 167.858 417.098 167.851 412.847H167.837Z" fill="#FFC87C"/>
</g>
<g style="mix-blend-mode:multiply" opacity="0.09">
<path d="M304.574 274.356C298.755 279.5 277.78 301.437 273.937 289.502C270.898 280.044 264.506 267.048 260.771 262.68C258.381 259.952 255.215 258.015 251.695 257.128V255.618C255.334 255.618 261.017 254.896 261.017 241.805C261.16 239.006 260.8 236.204 259.954 233.531C260.444 232.892 260.729 232.121 260.773 231.317C260.817 230.513 260.617 229.715 260.199 229.027C259.177 227.353 256.506 225.897 254.748 225.108C250.536 223.243 245.044 222.386 241.01 224.985C239.623 223.197 237.901 221.695 235.94 220.563C234.261 219.532 232.359 218.921 230.393 218.78C226.509 218.698 223.143 221.679 221.357 225.108C219.835 227.889 219.293 231.1 219.817 234.225C220.099 235.778 220.738 237.243 221.684 238.507C222.63 239.77 223.857 240.797 225.269 241.506C226.106 241.943 227.054 242.128 227.994 242.036C229.205 241.776 230.294 241.12 231.088 240.172C233.16 238.022 233.514 235.45 235.027 233.123C235.245 232.8 235.534 232.53 235.872 232.334C235.416 233.849 235.178 235.42 235.163 237.001C235.305 241.538 236.555 245.971 238.802 249.916C239.285 251.02 240.029 251.991 240.969 252.746C241.923 253.399 244.362 254.107 245.371 253.399L244.949 256.611C241.971 256.886 239.074 257.731 236.417 259.101C220.649 262.721 208.751 301.382 187.667 298.81C185.105 298.103 182.284 297.898 182.134 300.402C181.848 305.315 184.86 305.941 187.667 305.533V305.642C193.505 305.696 199.285 304.481 204.607 302.082C209.928 299.683 214.662 296.157 218.482 291.747C212.812 323.672 215.074 365.491 215.074 365.491C216.601 365.708 218.114 365.912 219.613 366.089L222.202 395.347H235.627V367.437C238.352 367.545 241.078 367.6 243.695 367.586L244.008 395.347H259.586L262.598 366.225C265.323 365.844 268.049 365.368 270.775 364.865C270.216 347.31 270.148 324.353 268.976 304.471C269.779 305.263 270.775 305.83 271.865 306.118C273.691 306.567 281.582 315.644 287.252 308.744C292.922 301.845 304.969 287.298 309.426 279.84C308.445 277.35 305.896 276.629 304.574 274.356Z" fill="black"/>
</g>
<path d="M253.466 252.188L252.581 258.965L259.708 259.754V252.596L253.466 252.188Z" fill="#F9ACC8"/>
<g style="mix-blend-mode:multiply" opacity="0.1">
<path d="M198.461 301.75C198.461 301.75 189.016 297.096 188.744 301.75C188.226 310.554 198.461 305.587 198.461 305.587V301.75Z" fill="black"/>
</g>
<path d="M199.797 300.416C199.797 300.416 190.352 295.762 190.079 300.416C189.561 309.22 199.797 304.253 199.797 304.253V300.416Z" fill="#FFC2D3"/>
<path d="M247.02 241.792C247.02 247.956 253.385 255.618 259.558 255.618C263.184 255.618 269.099 255.073 269.099 241.792C269.099 227.829 264.41 230.646 258.196 230.646C256.729 230.645 255.276 230.932 253.92 231.491C252.564 232.05 251.332 232.871 250.294 233.906C249.256 234.941 248.433 236.17 247.871 237.523C247.309 238.876 247.02 240.327 247.02 241.792Z" fill="#FFC2D3"/>
<g style="mix-blend-mode:multiply" opacity="0.3">
<path d="M256.41 246.976C256.336 241.424 257.216 235.901 259.013 230.646H258.196C255.235 230.646 252.396 231.821 250.303 233.911C248.21 236.001 247.034 238.836 247.034 241.792C247.034 247.834 253.167 255.305 259.218 255.59C257.231 253.173 256.228 250.098 256.41 246.976Z" fill="#FFC2D3"/>
</g>
<path d="M266.686 234.334C265.705 234.484 264.642 234.008 263.715 234.334C262.23 234.933 262.134 237.192 260.758 238.022C259.054 239.056 256.478 237.26 254.979 238.594C254.093 239.383 254.202 240.757 254.298 241.941C254.537 245.062 254.19 248.201 253.276 251.195C253.058 251.889 253.984 253.127 253.439 253.604C252.526 254.393 249.896 253.699 248.914 253.018C247.973 252.254 247.229 251.273 246.747 250.161C244.499 246.172 243.251 241.699 243.109 237.124C243.056 234.843 243.534 232.581 244.503 230.516C245.473 228.45 246.908 226.636 248.696 225.217C252.785 222.318 258.441 223.189 262.761 225.121C264.533 225.911 267.218 227.38 268.213 229.081C269.208 230.782 269.071 233.98 266.686 234.334Z" fill="#FFB255"/>
<g style="mix-blend-mode:multiply" opacity="0.5">
<path d="M265.501 226.632C264.042 227.993 262.584 230.279 261.48 231.041C259.901 231.904 258.194 232.51 256.424 232.837C248.478 235.273 247.933 247.439 251.395 253.93C252.083 254.102 252.812 254 253.426 253.644C253.971 253.168 253.058 251.93 253.262 251.236C254.177 248.242 254.523 245.103 254.284 241.982C254.189 240.798 254.093 239.424 254.966 238.634C256.465 237.274 259.054 239.097 260.744 238.063C262.107 237.233 262.216 234.974 263.702 234.375C264.628 234.008 265.691 234.47 266.673 234.375C269.058 234.021 269.221 230.823 268.213 229.163C267.505 228.131 266.579 227.267 265.501 226.632Z" fill="#FFC87C"/>
</g>
<path d="M243.954 220.576C242.278 219.538 240.374 218.921 238.407 218.78C234.523 218.698 231.156 221.706 229.371 225.176C227.848 227.991 227.306 231.232 227.831 234.389C228.108 235.953 228.744 237.432 229.69 238.71C230.636 239.987 231.866 241.028 233.282 241.751C234.119 242.191 235.067 242.375 236.008 242.281C237.221 242.019 238.31 241.357 239.102 240.404C241.173 238.226 241.528 235.641 243.041 233.286C244.267 231.381 246.966 232.171 248.778 230.932C253.276 227.748 246.761 222.128 243.954 220.576Z" fill="#FFB255"/>
<g style="mix-blend-mode:multiply" opacity="0.5">
<path d="M246.011 228.959C245.18 228.537 244.526 227.761 243.708 227.34C242.536 226.06 236.499 225.394 235.245 233.776C234.983 235.064 234.469 236.287 233.733 237.375C232.996 238.463 232.051 239.396 230.952 240.118C231.63 240.771 232.407 241.313 233.255 241.724C234.092 242.163 235.04 242.348 235.981 242.254C237.193 241.991 238.283 241.33 239.074 240.376C241.146 238.199 241.5 235.613 243.013 233.259C244.24 231.354 246.938 232.143 248.751 230.905C249.334 230.552 249.806 230.043 250.114 229.435C249.437 229.661 248.718 229.736 248.009 229.653C247.301 229.571 246.618 229.334 246.011 228.959Z" fill="#FFC87C"/>
</g>
<path d="M242.032 440.908C247.333 442.2 251.776 443.752 254.202 445.943H233.759L234.154 441.207L242.032 440.908Z" fill="#F9714E"/>
<path d="M260.308 440.908C265.61 442.2 270.053 443.752 272.478 445.943H252.131L252.526 441.207L260.308 440.908Z" fill="#F9714E"/>
<g style="mix-blend-mode:multiply" opacity="0.1">
<path d="M313.351 269.784C313.216 269.708 313.074 269.645 312.928 269.593C312.54 269.559 312.148 269.612 311.783 269.749C311.417 269.885 311.087 270.102 310.816 270.382C309.363 271.464 307.996 272.656 306.727 273.948C306.429 274.21 306.164 274.507 305.937 274.832C305.564 275.338 305.342 275.939 305.299 276.566C305.255 277.192 305.392 277.818 305.692 278.371C305.949 278.791 306.306 279.141 306.732 279.39C307.157 279.639 307.638 279.78 308.131 279.799C309.75 279.746 311.287 279.073 312.424 277.921C312.851 277.421 313.101 276.794 313.136 276.137C313.17 275.48 312.987 274.831 312.615 274.288C312.431 273.91 312.167 273.576 311.843 273.309C311.519 273.041 311.14 272.846 310.734 272.737C311.603 272.217 312.42 271.615 313.174 270.94C313.366 270.796 313.516 270.604 313.61 270.382C313.642 270.268 313.634 270.146 313.587 270.037C313.54 269.928 313.456 269.839 313.351 269.784Z" fill="black"/>
</g>
<path d="M312.86 272.737C313.232 273.279 313.416 273.929 313.381 274.586C313.347 275.242 313.096 275.869 312.669 276.37C311.532 277.522 309.995 278.194 308.376 278.248C307.883 278.229 307.403 278.088 306.977 277.839C306.552 277.59 306.194 277.239 305.937 276.819C305.637 276.267 305.501 275.641 305.544 275.014C305.588 274.388 305.809 273.787 306.182 273.281C307.668 271.117 311.347 269.92 312.86 272.737Z" fill="#FFC2D3"/>
<path d="M310.448 271.526C311.529 270.95 312.54 270.251 313.46 269.444C313.652 269.299 313.802 269.107 313.896 268.886C313.941 268.775 313.947 268.653 313.912 268.539C313.878 268.425 313.804 268.326 313.705 268.26C313.57 268.184 313.429 268.121 313.283 268.069C312.894 268.035 312.502 268.088 312.137 268.225C311.771 268.361 311.441 268.578 311.17 268.858C309.718 269.94 308.351 271.132 307.082 272.424C308.26 272.397 309.414 272.089 310.448 271.526Z" fill="#FFC2D3"/>
<path d="M284.431 290.264C291.635 285.257 298.467 279.735 304.874 273.744C304.977 273.651 305.099 273.581 305.23 273.536C305.362 273.491 305.501 273.473 305.64 273.484C305.778 273.494 305.914 273.532 306.037 273.595C306.161 273.658 306.27 273.746 306.359 273.853C307.613 275.35 309.671 277.568 309.453 278.507C309.292 279.025 309.001 279.493 308.608 279.867L289.378 301.137C288.192 302.588 286.817 303.874 285.289 304.961C284.513 305.498 283.636 305.875 282.712 306.069C281.787 306.263 280.833 306.27 279.906 306.091C276.826 305.328 275.095 302.158 273.419 299.463C265.133 286.182 266.495 281.378 267.518 277.295C268.226 274.451 269.112 271.648 269.63 268.749C269.794 267.838 267.599 262.762 268.853 262.694C272.587 267.062 278.202 280.385 282.018 289.516C282.115 289.734 282.258 289.93 282.436 290.089C282.615 290.248 282.826 290.366 283.054 290.437C283.283 290.508 283.524 290.53 283.761 290.5C283.999 290.47 284.227 290.389 284.431 290.264Z" fill="#F9714E"/>
<path d="M224.615 332.722L234.25 441.847C235.741 442.193 237.252 442.443 238.775 442.595C239.662 442.535 240.545 442.421 241.419 442.255C242.536 442.051 243.504 441.847 243.504 441.847L243.599 359.353H251.572L252.512 441.847C254.121 442.254 255.773 442.474 257.432 442.5C259.225 442.449 261.009 442.231 262.761 441.847L274.332 329.932L224.615 332.722Z" fill="#4B48B5"/>
<path d="M249.405 340.9C249.405 344.602 249.201 347.936 250.495 351.284C250.977 352.611 251.879 353.746 253.064 354.517C254.249 355.288 255.653 355.653 257.064 355.557C261.834 355.461 265.146 352.835 265.16 348.045C265.16 347.419 265.473 340.9 265.773 340.887L249.405 340.9Z" fill="#568EDB"/>
<path d="M226.768 340.914C226.595 344.4 226.866 347.893 227.572 351.311C228.281 353.937 229.889 355.665 232.165 355.611C235.49 355.529 237.344 351.842 237.766 348.14C237.834 347.528 237.943 340.996 238.161 340.982L226.768 340.914Z" fill="#568EDB"/>
<path d="M243.613 359.353C243.665 359.343 243.711 359.314 243.741 359.271C243.772 359.227 243.784 359.174 243.776 359.122C242.495 351.705 243.381 337.512 243.381 337.349C243.4 337.301 243.4 337.247 243.381 337.199C243.333 337.181 243.28 337.181 243.231 337.199C243.109 337.199 230.366 337.798 225.023 336.451C224.979 336.452 224.936 336.468 224.901 336.496C224.867 336.524 224.842 336.562 224.831 336.605C224.821 336.648 224.824 336.694 224.842 336.735C224.859 336.775 224.889 336.81 224.928 336.832C229.93 338.097 241.282 337.675 243.027 337.607C242.918 339.444 242.236 352.277 243.436 359.231C243.451 359.266 243.476 359.296 243.507 359.317C243.538 359.339 243.575 359.351 243.613 359.353Z" fill="#5E9CE4"/>
<path d="M245.207 359.353C245.259 359.347 245.306 359.32 245.339 359.28C245.372 359.239 245.388 359.188 245.385 359.136C244.638 351.992 244.542 344.795 245.098 337.635C254.323 337.396 263.512 336.404 272.574 334.668C272.626 334.658 272.672 334.628 272.702 334.585C272.733 334.542 272.745 334.489 272.737 334.437C272.734 334.41 272.725 334.384 272.712 334.362C272.698 334.339 272.68 334.319 272.658 334.303C272.636 334.288 272.611 334.277 272.585 334.272C272.559 334.267 272.532 334.267 272.506 334.273C263.426 336.013 254.218 337.001 244.976 337.226C244.927 337.226 244.881 337.244 244.845 337.277C244.81 337.31 244.788 337.355 244.785 337.403C244.202 344.653 244.289 351.942 245.044 359.176C245.049 359.219 245.067 359.26 245.097 359.291C245.126 359.323 245.165 359.345 245.207 359.353Z" fill="#5E9CE4"/>
<g style="mix-blend-mode:multiply" opacity="0.16">
<g style="mix-blend-mode:multiply" opacity="0.16">
<path d="M241.432 442.268C242.55 442.064 243.517 441.86 243.517 441.86L243.613 359.367H244.281C244.252 359.308 244.212 359.256 244.162 359.213C244.112 359.171 244.054 359.139 243.991 359.12C243.929 359.101 243.863 359.094 243.798 359.102C243.732 359.109 243.67 359.13 243.613 359.163C242.262 359.864 241.13 360.923 240.342 362.225C239.572 363.263 239.14 364.512 239.102 365.804C238.502 391.224 239.947 410.575 241.432 442.268Z" fill="#4E84D9"/>
</g>
</g>
<path d="M261.943 439.547C261.892 439.54 261.844 439.514 261.811 439.473C261.778 439.433 261.762 439.381 261.766 439.329L261.93 437.696C261.931 437.67 261.938 437.644 261.95 437.621C261.963 437.597 261.979 437.576 262 437.56C262.02 437.543 262.044 437.531 262.07 437.524C262.095 437.517 262.122 437.515 262.148 437.519C262.2 437.526 262.247 437.552 262.28 437.593C262.313 437.633 262.329 437.685 262.325 437.737L262.161 439.37C262.155 439.419 262.13 439.464 262.093 439.497C262.055 439.529 262.007 439.547 261.957 439.547H261.943ZM262.434 434.743C262.382 434.736 262.335 434.71 262.302 434.669C262.269 434.629 262.253 434.577 262.257 434.525L262.584 431.355C262.586 431.328 262.593 431.303 262.605 431.279C262.617 431.256 262.634 431.235 262.654 431.218C262.675 431.202 262.698 431.19 262.724 431.183C262.749 431.176 262.776 431.174 262.802 431.178C262.854 431.184 262.901 431.211 262.934 431.251C262.967 431.292 262.983 431.343 262.979 431.395L262.652 434.566C262.645 434.615 262.621 434.661 262.583 434.693C262.546 434.726 262.497 434.743 262.448 434.743H262.434ZM263.088 428.402C263.036 428.395 262.989 428.368 262.956 428.328C262.923 428.287 262.907 428.236 262.911 428.184L263.238 425.013C263.24 424.987 263.247 424.961 263.259 424.938C263.271 424.914 263.288 424.894 263.308 424.877C263.329 424.86 263.352 424.848 263.378 424.841C263.403 424.834 263.43 424.832 263.456 424.836C263.508 424.843 263.555 424.869 263.588 424.91C263.621 424.95 263.637 425.002 263.633 425.054L263.306 428.225C263.3 428.274 263.275 428.319 263.238 428.352C263.2 428.384 263.152 428.402 263.102 428.402H263.088ZM263.742 422.06C263.691 422.053 263.643 422.027 263.61 421.987C263.577 421.946 263.561 421.894 263.565 421.842L263.892 418.672C263.892 418.563 264.015 418.468 264.11 418.495C264.162 418.502 264.209 418.528 264.242 418.568C264.275 418.609 264.291 418.66 264.288 418.713L263.96 421.883C263.954 421.933 263.929 421.978 263.892 422.01C263.854 422.043 263.806 422.061 263.756 422.06H263.742ZM264.397 415.719C264.345 415.712 264.297 415.686 264.265 415.645C264.232 415.605 264.215 415.553 264.219 415.501L264.546 412.33C264.548 412.304 264.555 412.278 264.567 412.255C264.579 412.231 264.596 412.211 264.617 412.194C264.637 412.177 264.661 412.165 264.686 412.158C264.712 412.151 264.738 412.15 264.765 412.153C264.816 412.16 264.864 412.187 264.896 412.227C264.929 412.267 264.946 412.319 264.942 412.371L264.615 415.542C264.608 415.591 264.584 415.636 264.546 415.669C264.508 415.701 264.46 415.719 264.41 415.719H264.397ZM265.051 409.377C264.999 409.37 264.952 409.344 264.919 409.304C264.886 409.263 264.87 409.212 264.874 409.16L265.201 405.989C265.2 405.962 265.205 405.935 265.217 405.91C265.228 405.885 265.245 405.864 265.266 405.847C265.287 405.83 265.312 405.818 265.338 405.812C265.365 405.806 265.392 405.806 265.419 405.812C265.47 405.819 265.518 405.845 265.551 405.886C265.584 405.926 265.6 405.978 265.596 406.03L265.269 409.2C265.262 409.25 265.238 409.295 265.2 409.327C265.162 409.36 265.114 409.378 265.064 409.377H265.051ZM265.705 403.036C265.653 403.029 265.606 403.003 265.573 402.962C265.54 402.922 265.524 402.87 265.528 402.818L265.855 399.647C265.856 399.621 265.863 399.595 265.876 399.572C265.888 399.548 265.904 399.528 265.925 399.511C265.945 399.494 265.969 399.482 265.995 399.475C266.02 399.468 266.047 399.467 266.073 399.47C266.125 399.477 266.172 399.504 266.205 399.544C266.238 399.585 266.254 399.636 266.25 399.688L265.923 402.859C265.916 402.908 265.892 402.953 265.854 402.986C265.817 403.019 265.768 403.036 265.719 403.036H265.705ZM266.359 396.694C266.307 396.688 266.26 396.661 266.227 396.621C266.194 396.58 266.178 396.529 266.182 396.477L266.509 393.306C266.509 393.197 266.618 393.088 266.727 393.129C266.779 393.136 266.826 393.162 266.859 393.203C266.892 393.243 266.908 393.295 266.904 393.347L266.577 396.517C266.571 396.567 266.546 396.612 266.508 396.644C266.471 396.677 266.423 396.695 266.373 396.694H266.359ZM267.013 390.353C266.961 390.346 266.914 390.32 266.881 390.279C266.848 390.239 266.832 390.187 266.836 390.135L267.163 386.964C267.165 386.938 267.172 386.912 267.184 386.889C267.196 386.866 267.213 386.845 267.233 386.828C267.254 386.812 267.278 386.799 267.303 386.792C267.328 386.785 267.355 386.784 267.381 386.788C267.433 386.794 267.48 386.821 267.513 386.861C267.546 386.902 267.562 386.953 267.558 387.005L267.231 390.176C267.225 390.225 267.2 390.27 267.163 390.303C267.125 390.336 267.077 390.353 267.027 390.353H267.013ZM267.667 384.011C267.616 384.005 267.568 383.978 267.535 383.938C267.503 383.897 267.486 383.846 267.49 383.794L267.817 380.623C267.824 380.574 267.848 380.529 267.886 380.496C267.924 380.463 267.972 380.446 268.022 380.446C268.074 380.453 268.121 380.479 268.154 380.52C268.187 380.56 268.203 380.612 268.199 380.664L267.872 383.835C267.865 383.884 267.841 383.929 267.803 383.962C267.765 383.994 267.717 384.012 267.667 384.011ZM268.322 377.67C268.27 377.663 268.223 377.637 268.19 377.596C268.157 377.556 268.141 377.504 268.144 377.452L268.472 374.282C268.472 374.173 268.594 374.077 268.69 374.105C268.741 374.111 268.789 374.138 268.822 374.178C268.855 374.219 268.871 374.27 268.867 374.322L268.54 377.493C268.533 377.542 268.509 377.588 268.471 377.62C268.433 377.653 268.385 377.67 268.335 377.67H268.322ZM268.976 371.329C268.924 371.322 268.877 371.295 268.844 371.255C268.811 371.214 268.795 371.163 268.799 371.111L269.126 367.94C269.127 367.914 269.134 367.888 269.146 367.865C269.159 367.841 269.175 367.82 269.196 367.804C269.216 367.787 269.24 367.775 269.266 367.768C269.291 367.761 269.318 367.759 269.344 367.763C269.396 367.77 269.443 367.796 269.476 367.837C269.509 367.877 269.525 367.929 269.521 367.981L269.194 371.152C269.187 371.201 269.163 371.246 269.125 371.279C269.087 371.311 269.039 371.329 268.989 371.329H268.976ZM269.63 364.987C269.578 364.98 269.531 364.954 269.498 364.913C269.465 364.873 269.449 364.821 269.453 364.769L269.78 361.599C269.781 361.572 269.789 361.547 269.801 361.523C269.813 361.5 269.83 361.479 269.85 361.462C269.871 361.446 269.894 361.434 269.92 361.427C269.945 361.42 269.972 361.418 269.998 361.422C270.05 361.429 270.097 361.455 270.13 361.495C270.163 361.536 270.179 361.587 270.175 361.639L269.848 364.837C269.841 364.887 269.817 364.932 269.779 364.964C269.742 364.997 269.693 365.015 269.644 365.014L269.63 364.987ZM270.284 358.646C270.232 358.639 270.185 358.613 270.152 358.572C270.119 358.532 270.103 358.48 270.107 358.428L270.434 355.257C270.436 355.231 270.443 355.205 270.455 355.182C270.467 355.158 270.484 355.138 270.504 355.121C270.525 355.104 270.548 355.092 270.574 355.085C270.599 355.078 270.626 355.076 270.652 355.08C270.704 355.087 270.751 355.113 270.784 355.154C270.817 355.194 270.833 355.246 270.829 355.298L270.502 358.469C270.496 358.518 270.471 358.563 270.433 358.596C270.396 358.628 270.348 358.646 270.298 358.646H270.284ZM270.938 352.304C270.887 352.297 270.839 352.271 270.806 352.231C270.773 352.19 270.757 352.139 270.761 352.086L271.088 348.916C271.088 348.807 271.211 348.698 271.306 348.739C271.358 348.746 271.405 348.772 271.438 348.812C271.471 348.853 271.487 348.905 271.483 348.957L271.156 352.127C271.15 352.177 271.125 352.222 271.088 352.254C271.05 352.287 271.002 352.305 270.952 352.304H270.938ZM271.593 345.963C271.541 345.956 271.493 345.93 271.461 345.889C271.428 345.849 271.411 345.797 271.415 345.745L271.742 342.574C271.744 342.548 271.751 342.522 271.763 342.499C271.775 342.475 271.792 342.455 271.813 342.438C271.833 342.421 271.857 342.409 271.882 342.402C271.908 342.395 271.934 342.394 271.96 342.397C272.012 342.404 272.06 342.431 272.092 342.471C272.125 342.512 272.142 342.563 272.138 342.615L271.811 345.786C271.804 345.835 271.779 345.88 271.742 345.913C271.704 345.945 271.656 345.963 271.606 345.963H271.593ZM272.247 339.621C272.195 339.615 272.148 339.588 272.115 339.548C272.082 339.507 272.066 339.456 272.07 339.404L272.397 336.233C272.397 336.124 272.506 336.015 272.615 336.056C272.666 336.063 272.714 336.089 272.747 336.13C272.78 336.17 272.796 336.222 272.792 336.274L272.465 339.444C272.458 339.494 272.434 339.539 272.396 339.571C272.358 339.604 272.31 339.622 272.26 339.621H272.247Z" fill="#5E9CE4"/>
<path d="M244.362 259.06C228.594 262.68 216.696 301.341 195.613 298.769V305.641C205.48 305.641 218.959 302.498 230.011 287.366C245.984 265.511 244.362 259.06 244.362 259.06Z" fill="#F9714E"/>
<g style="mix-blend-mode:multiply" opacity="0.3">
<path d="M244.362 259.06C228.594 262.68 216.696 301.341 195.613 298.769V305.641C205.48 305.641 218.959 302.498 230.011 287.366C245.984 265.511 244.362 259.06 244.362 259.06Z" fill="#F9714E"/>
</g>
<path d="M268.785 262.639C278.461 273.717 277.657 329.891 278.761 364.783C261.316 368.444 242.604 368.28 223.006 365.463C223.006 365.463 219.953 309.248 229.821 277.404C236.444 255.835 258.577 250.991 268.785 262.639Z" fill="#F9714E"/>
<g style="mix-blend-mode:multiply" opacity="0.3">
<path d="M236.362 336.764C232.803 324.918 231.044 312.606 231.143 300.239C231.143 289.802 231.429 278.466 234.168 268.178C232.246 271.025 230.762 274.145 229.766 277.432C219.953 309.275 222.952 365.491 222.952 365.491C232.548 366.919 242.238 367.615 251.94 367.573C244.874 358.36 239.591 347.911 236.362 336.764Z" fill="#F9714E"/>
</g>
<path d="M82.3036 245.139C83.6665 245.058 93.4247 237.886 97.1726 235.464C98.2622 234.842 99.2278 234.026 100.021 233.055C100.414 232.564 100.671 231.979 100.766 231.359C100.862 230.738 100.793 230.103 100.566 229.517C100.212 228.625 99.5793 227.87 98.7618 227.365C97.9443 226.86 96.9855 226.632 96.0277 226.714C91.1896 226.714 89.5132 228.306 87.1691 230.796C79.3871 238.771 82.3036 245.139 82.3036 245.139Z" fill="#00AD9F"/>
<path d="M125.806 274.084C130.031 275.975 134.542 277.867 139.135 277.282C140.921 277.051 142.856 276.248 143.456 274.56C143.643 273.821 143.615 273.043 143.373 272.32C143.132 271.596 142.687 270.957 142.093 270.478C140.899 269.535 139.497 268.891 138.004 268.6C132.375 267.239 124.484 267.987 118.924 269.566C121.087 271.262 123.39 272.773 125.806 274.084Z" fill="#00AD9F"/>
<path d="M153.636 211.772C151.755 210.588 149.67 209.05 149.67 206.764C149.67 204.478 152.001 202.831 154.236 202.817C156.494 202.973 158.62 203.94 160.219 205.539C167.333 211.772 166.447 218.875 166.447 218.875C166.447 218.875 155.735 213.092 153.636 211.772Z" fill="#00AD9F"/>
<path d="M159.238 192.761C157.52 192.187 156.011 191.117 154.904 189.686C154.648 189.33 154.475 188.922 154.397 188.491C154.319 188.06 154.338 187.618 154.454 187.195C154.945 185.834 155.817 184.569 159.292 185.208C170.331 187.209 172.73 194.734 172.73 194.734C172.73 194.734 162.181 194.027 159.238 192.761Z" fill="#00AD9F"/>
<path d="M191.565 209.458C196.135 209.074 200.371 206.909 203.354 203.43C204.476 202.174 205.288 200.673 205.725 199.048C205.934 198.233 205.924 197.378 205.697 196.568C205.47 195.758 205.033 195.023 204.43 194.435C203.599 193.836 202.6 193.513 201.575 193.513C200.55 193.513 199.551 193.836 198.72 194.435C197.08 195.676 195.804 197.336 195.027 199.239C193.841 201.688 191.565 209.458 191.565 209.458Z" fill="#00AD9F"/>
<path d="M112.532 370.594L80.4093 342.302C74.6989 337.281 68.8658 332.096 65.2542 325.414C57.4722 311.03 61.956 292.346 72.4638 279.813C82.9715 267.28 98.3174 259.918 113.772 254.474C129.227 249.031 145.309 245.302 160.042 238.145C169.282 233.681 178.563 227.027 181.098 217.093C181.862 214.098 181.955 210.972 181.37 207.938C180.785 204.903 179.537 202.035 177.715 199.537C175.893 197.039 173.541 194.974 170.828 193.487C168.115 192.001 165.107 191.13 162.018 190.937" stroke="#086356" stroke-linecap="round" stroke-linejoin="round"/>
<path d="M199.061 199.198C196.13 208.179 184.723 213.636 179.517 221.42" stroke="#086356" stroke-linecap="round" stroke-linejoin="round"/>
<path d="M158.093 209.567C160.342 211.935 163.026 213.895 164.989 216.507C169.078 222.019 169.473 230.973 163.353 236.539" stroke="#086356" stroke-linecap="round" stroke-linejoin="round"/>
<path d="M100.389 259.782C110.136 267.277 121.92 271.664 134.202 272.369" stroke="#086356" stroke-linecap="round" stroke-linejoin="round"/>
<path d="M78.7466 273.036C76.6999 266.573 76.6758 259.64 78.6774 253.163C80.679 246.686 84.6112 240.972 89.9493 236.784" stroke="#086356" stroke-linecap="round" stroke-linejoin="round"/>
<path d="M453.44 96.9588C453.125 96.182 453.022 95.3355 453.142 94.5059C453.262 93.6763 453.6 92.8932 454.122 92.2368C454.59 91.7553 455.189 91.4203 455.845 91.2729C456.5 91.1255 457.185 91.172 457.815 91.4067C467.192 95.4891 466.169 110.186 466.169 110.186C466.169 110.186 457.283 108.866 453.44 96.9588Z" fill="#00AD9F"/>
<path d="M453.209 124.393C447.144 135.375 468.691 134.531 476.473 128.067C476.473 128.067 458.428 114.949 453.209 124.393Z" fill="#00AD9F"/>
<path d="M480.452 97.8026C478.994 95.7885 478.476 92.8083 480.057 90.8896C480.702 90.2085 481.515 89.71 482.415 89.4446C483.315 89.1793 484.27 89.1567 485.181 89.379C487.374 89.968 489.351 91.1723 490.878 92.8492C497.965 101.681 494.64 110.336 494.64 110.336C494.64 110.336 482.851 101.082 480.452 97.8026Z" fill="#00AD9F"/>
<path d="M566.04 124.978C565.718 124.141 565.635 123.232 565.798 122.351C565.962 121.469 566.366 120.65 566.967 119.984C567.403 119.625 567.905 119.358 568.446 119.196C568.987 119.035 569.554 118.984 570.115 119.045C571.241 119.173 572.335 119.5 573.345 120.011C575.526 121.029 577.281 122.776 578.306 124.951C581.032 130.394 579.165 137.198 579.165 137.198C579.165 137.198 567.349 129.278 566.04 124.978Z" fill="#00AD9F"/>
<path d="M539.124 145.118C537.189 143.453 534.83 142.357 532.308 141.951C529.787 141.545 527.202 141.845 524.841 142.819C523.637 143.302 522.584 144.095 521.788 145.118C520.084 147.473 520.684 150.929 522.442 153.283C524.367 155.475 526.8 157.162 529.529 158.196C534.327 160.373 541.795 160.809 546.879 162.115C546.865 162.061 546.851 151.909 539.124 145.118Z" fill="#00AD9F"/>
<path d="M460.159 99.3403C463.335 109.737 472.302 117.575 482.292 121.821C492.282 126.067 503.28 127.183 514.115 127.89C524.95 128.598 535.921 128.938 546.374 131.782C556.582 134.504 566.749 140.342 571.124 149.977C576.453 161.707 571.737 175.737 564.31 186.229C556.882 196.721 546.742 205.172 539.505 215.827C536.18 220.726 533.4 226.455 534.054 232.334C534.953 240.172 541.55 245.942 547.683 250.909" stroke="#086356" stroke-linecap="round" stroke-linejoin="round"/>
<path d="M485.181 95.5028C492.734 104.327 497.667 115.083 499.423 126.557" stroke="#086356" stroke-linecap="round" stroke-linejoin="round"/>
<path d="M460.99 126.217C465.049 127.485 469.254 128.226 473.502 128.421C478.096 128.191 482.452 126.311 485.767 123.128" stroke="#086356" stroke-linecap="round" stroke-linejoin="round"/>
<path d="M573.059 125.618C576.931 129.401 579.213 134.516 579.437 139.92C579.642 145.268 576.712 151.746 573.114 155.747" stroke="#086356" stroke-linecap="round" stroke-linejoin="round"/>
<path d="M532.882 149.895C540.055 156.697 547.692 162.995 555.737 168.742C559.635 171.464 567.376 175.002 570.797 174.104" stroke="#086356" stroke-linecap="round" stroke-linejoin="round"/>
</g>
<defs>
<clipPath id="clip0">
<rect width="646" height="493" fill="white"/>
</clipPath>
</defs>
</svg>
