<svg width="646" height="518" viewBox="0 0 646 518" fill="none" xmlns="http://www.w3.org/2000/svg">
<g clip-path="url(#clip0)">
<path d="M606.858 201.703C615.908 218.128 629.06 233.615 630.204 252.135C632.031 281.883 602.947 304.296 591.117 331.866C576.494 365.683 588.759 405.555 575.853 440.052C566.504 465.009 543.567 484.959 516.609 491.546C496.411 496.485 475.164 494.267 454.299 494.458C395.082 495.029 336.097 515.482 277.698 506.202C248.86 501.616 221.589 489.872 192.614 486.17C157.875 481.666 117.384 487.109 92.5524 463.54C57.881 430.526 83.6393 369.969 57.5948 330.451C49.2132 317.727 35.7071 307.766 31.1824 293.382C25.8945 276.562 34.4669 258.64 45.1109 244.311C55.755 229.981 68.9203 216.781 74.6852 200.097C79.9186 184.951 76.7295 168.499 70.2831 153.829C60.416 131.28 87.8778 79.5963 142.324 83.4747C167.292 85.2029 178.536 56.299 205.916 48.3246C237.262 39.1662 276.635 46.5283 299.736 54.1897C323.204 61.9736 352.234 66.0697 365.685 46.1744C384.683 18.0734 441.311 13.6779 466.742 59.3064C476.037 75.9765 484.296 88.9452 504.071 87.666C611.22 80.7939 593.407 177.29 606.858 201.703ZM314.823 47.5081C314.823 51.332 314.823 57.9048 331.722 56.8297C336.901 56.5031 341.126 53.727 341.126 49.9031C341.126 46.0792 336.915 42.9765 331.722 42.9765C326.53 42.9765 314.823 41.3299 314.823 47.5081ZM148.376 66.0833C147.893 66.4349 147.509 66.9032 147.258 67.4442C146.023 69.0989 144.304 70.3304 142.338 70.9687C141.171 71.2945 140.085 71.86 139.149 72.6289C138.834 72.9706 138.592 73.3724 138.438 73.8102C138.283 74.2479 138.22 74.7124 138.25 75.1755C138.281 75.6387 138.405 76.0908 138.616 76.5045C138.827 76.9182 139.119 77.2848 139.476 77.5823C140.807 78.4287 142.396 78.7759 143.96 78.5621C149.838 78.2703 155.481 76.164 160.11 72.5336C166.066 67.798 151.646 64.3143 148.376 66.0833ZM132.335 74.9015C130.358 73.5407 127.796 74.3572 125.834 75.3642C125.611 75.4501 125.409 75.5799 125.238 75.7459C125.067 75.912 124.931 76.1107 124.839 76.3304C124.58 77.2557 125.766 77.9225 126.72 78.2219C128.179 78.8361 129.793 78.9834 131.34 78.6438C132.825 78.1539 134.324 76.1943 132.335 74.9015ZM57.6085 196.913C56.1502 192.45 52.6885 190.231 47.4415 192.831C44.4525 194.532 41.9765 197.004 40.2728 199.989C37.2608 204.547 34.6714 209.773 35.2983 215.121C35.5578 217.102 36.2319 219.007 37.2767 220.712C38.3216 222.416 39.7138 223.882 41.3631 225.014C42.7123 226.042 44.3545 226.614 46.0513 226.647C47.8964 226.458 49.6359 225.696 51.0258 224.47C54.2966 221.705 57.1921 218.525 59.6391 215.012C61.1255 213.385 62.1551 211.394 62.6238 209.242C63.169 204.629 58.9577 201.009 57.6085 196.913ZM605.482 334.357C604.108 334.794 602.897 335.633 602.007 336.765C601.472 337.721 601.168 338.788 601.121 339.881C600.869 342.141 600.742 344.412 600.739 346.686C600.739 349.162 600.998 351.898 602.906 353.585C605.468 355.858 609.543 355.055 612.896 354.116C614.828 353.778 616.613 352.868 618.02 351.503C618.826 350.369 619.328 349.048 619.479 347.665C620.296 343.147 622.777 336.316 620.024 333.975C617.271 331.635 610.252 332.37 605.441 334.329L605.482 334.357ZM416.179 509.087C415.475 509.695 414.884 510.422 414.435 511.237C414.177 511.809 414.036 512.426 414.019 513.053C414.003 513.68 414.111 514.305 414.338 514.889C414.565 515.474 414.906 516.008 415.342 516.461C415.777 516.913 416.298 517.274 416.874 517.524C418.126 517.932 419.446 518.09 420.759 517.986C432.03 517.837 444.145 517.428 453.154 510.964C454.258 510.175 455.389 509.073 455.198 507.767C454.967 506.202 453.018 505.521 451.382 505.208C440.125 503.044 425.215 500.609 416.179 509.087ZM202.223 491.763C192.423 490.402 176.832 488.579 176.832 496.485C176.832 499.479 190.665 502.35 192.955 502.895C199.956 504.756 206.842 507.028 213.575 509.699C226.413 514.435 236.744 508.052 226.522 500.908C219.324 495.863 210.965 492.718 202.223 491.763Z" fill="#C8EEFB"/>
</g>
<path d="M509.697 430.32C510.936 431.127 511.968 432.215 512.707 433.496C513.446 434.777 513.872 436.214 513.95 437.691C513.95 440.41 512.015 441.513 509.665 440.154L470.857 417.768C469.616 416.96 468.583 415.869 467.844 414.585C467.104 413.301 466.68 411.86 466.604 410.38C466.604 407.678 468.539 406.575 470.889 407.934L509.697 430.32Z" fill="#1AE5FF"/>
<g opacity="0.57">
<path opacity="0.57" d="M34.669 185.659C33.3083 186.552 32.1767 187.752 31.3657 189.163C30.5546 190.574 30.0868 192.156 30 193.781L30.3198 304.112C30.3198 311.147 35.3406 314.025 41.4328 310.508L107.183 272.548C108.544 271.655 109.676 270.454 110.487 269.043C111.298 267.632 111.765 266.05 111.852 264.425L111.532 154.095C111.532 147.059 106.512 144.181 100.419 147.699L34.669 185.659Z" fill="#1AE5FF"/>
</g>
<path d="M44.7587 225.649C44.3549 225.912 44.0186 226.266 43.7769 226.683C43.5353 227.099 43.395 227.567 43.3676 228.048V233.916C43.3676 234.796 43.9912 235.163 44.7747 234.716L98.3888 203.759C98.7946 203.495 99.1323 203.138 99.374 202.719C99.6158 202.299 99.7549 201.828 99.7799 201.345V195.476C99.7799 194.597 99.1563 194.245 98.3728 194.677L44.7587 225.649Z" fill="white"/>
<path d="M44.8066 238.409C44.4008 238.673 44.0631 239.03 43.8214 239.45C43.5796 239.869 43.4405 240.34 43.4155 240.824V246.692C43.4155 247.587 44.0391 247.923 44.8226 247.492L98.4367 216.519C98.8414 216.257 99.1784 215.904 99.4202 215.487C99.662 215.07 99.8017 214.602 99.8279 214.121V208.252C99.8279 207.357 99.2043 207.005 98.4208 207.453L44.8066 238.409Z" fill="white"/>
<path d="M65.7214 247.843C64.7618 248.468 63.9634 249.311 63.391 250.303C62.8186 251.295 62.4885 252.408 62.4275 253.552V254.895C62.4275 256.99 63.9145 257.837 65.7534 256.782L83.0864 246.772C84.0511 246.147 84.854 245.303 85.4293 244.308C86.0046 243.313 86.336 242.195 86.3963 241.048V239.848C86.3963 237.754 84.8933 236.906 83.0704 237.962L65.7214 247.843Z" fill="url(#paint0_linear)"/>
<path d="M261.853 2.27056L261.326 1.98275L260.622 1.59899L259.951 1.27919L259.295 1.02335L258.655 0.783505H258.528L258.048 0.623606L257.36 0.431727L256.689 0.287818L255.969 0.175889L255.457 0H255.202H254.418H253.555C253.233 0.0310822 252.912 0.0791185 252.595 0.143909C252.221 0.220108 251.852 0.321611 251.492 0.447717C251.026 0.613585 250.576 0.822348 250.149 1.07132L239.18 7.46728C239.94 7.02772 240.766 6.71451 241.626 6.53987C242.521 6.36591 243.436 6.31747 244.344 6.39596C245.385 6.49971 246.41 6.7251 247.399 7.06753C248.562 7.49056 249.681 8.02609 250.74 8.66652L550.743 182.285L561.712 175.889L261.853 2.27056Z" fill="url(#paint1_linear)"/>
<path d="M584.721 206.989C584.721 206.723 584.721 206.456 584.721 206.19C584.721 205.923 584.721 205.657 584.721 205.39C584.721 205.124 584.689 204.852 584.625 204.575C584.561 204.297 584.524 204.02 584.513 203.743C584.513 203.471 584.417 203.215 584.369 202.944C584.322 202.672 584.258 202.368 584.194 202.08C584.13 201.792 584.066 201.505 583.986 201.217C583.906 200.929 583.842 200.625 583.762 200.337L583.57 199.65V199.506L583.298 198.642L583.01 197.795L582.707 196.979L582.387 196.18L582.131 195.572V195.428L581.763 194.629L581.347 193.765L580.836 192.774C580.644 192.422 580.452 192.071 580.244 191.719L580.148 191.527L580.02 191.303C579.626 190.642 579.215 189.992 578.789 189.352C578.363 188.713 578.016 188.217 577.75 187.865L577.014 186.906L576.375 186.122L575.735 185.371L575.095 184.651L574.967 184.507L574.472 183.98L573.768 183.292L573.049 182.621L572.313 181.981L571.945 181.677H571.865L571.594 181.453L570.458 180.686L569.739 180.174L569.035 179.71L568.332 179.279L568.172 179.183L557.203 185.579C558.359 186.253 559.46 187.018 560.497 187.865H560.577C561.65 188.741 562.665 189.687 563.615 190.695C565.628 192.854 567.388 195.236 568.859 197.795L568.955 197.987C569.674 199.23 570.325 200.511 570.906 201.824C571.486 203.147 571.988 204.504 572.409 205.886C572.814 207.228 573.129 208.595 573.352 209.979C573.566 211.306 573.673 212.648 573.672 213.993L573.081 423.348C573.083 424.545 572.97 425.739 572.745 426.914V427.01C572.55 428.013 572.238 428.989 571.817 429.92C571.479 430.607 571.06 431.251 570.57 431.839C570.41 432.031 570.266 432.239 570.106 432.415C569.579 432.995 568.971 433.496 568.3 433.902L579.269 427.506C579.94 427.1 580.549 426.599 581.076 426.019C581.235 425.843 581.379 425.651 581.539 425.459C581.749 425.224 581.947 424.979 582.131 424.723C582.362 424.358 582.57 423.979 582.754 423.588V423.732C582.882 423.46 582.994 423.188 583.106 422.901C583.218 422.613 583.314 422.325 583.394 422.037C583.474 421.749 583.554 421.478 583.618 421.19C583.682 420.902 583.618 420.95 583.618 420.822V420.726V420.374C583.618 420.118 583.655 419.852 583.73 419.575C583.804 419.298 583.831 419.031 583.81 418.775C583.81 418.519 583.81 418.258 583.81 417.992C583.81 417.725 583.81 417.459 583.81 417.192L584.401 207.837C584.625 207.527 584.732 207.245 584.721 206.989Z" fill="url(#paint2_linear)"/>
<path d="M557.267 185.483C566.413 190.759 573.784 203.535 573.752 214.041L573.161 423.396C573.161 433.902 565.709 438.139 556.563 432.862L250.165 256.03C241.019 250.753 233.647 237.978 233.679 227.472L234.271 18.1165C234.271 7.61118 241.722 3.37386 250.868 8.65052L557.267 185.483Z" fill="url(#paint3_linear)"/>
<path d="M538.351 185.083C546.761 189.88 553.541 201.68 553.509 211.338L552.965 403.793C552.965 413.387 546.106 417.336 537.711 412.491L270.472 258.301C262.061 253.504 255.282 241.703 255.314 232.045L255.857 39.591C255.857 29.997 262.717 26.0475 271.112 30.8925L538.351 185.083Z" fill="#F9FBFC"/>
<path d="M562.112 352.353C561.518 352.353 560.948 352.117 560.529 351.698C560.109 351.278 559.873 350.708 559.873 350.115V283.021C559.873 282.427 560.109 281.858 560.529 281.438C560.948 281.018 561.518 280.782 562.112 280.782C562.705 280.782 563.275 281.018 563.694 281.438C564.114 281.858 564.35 282.427 564.35 283.021V350.179C564.333 350.761 564.09 351.314 563.672 351.72C563.254 352.126 562.694 352.353 562.112 352.353Z" fill="#F9FBFC"/>
<path d="M244.105 137.625C245.494 138.51 246.653 139.713 247.487 141.133C248.321 142.553 248.805 144.151 248.902 145.796C248.902 148.802 246.759 150.017 244.105 148.498C242.716 147.613 241.557 146.411 240.723 144.99C239.889 143.57 239.404 141.972 239.308 140.327C239.372 137.321 241.498 136.106 244.105 137.625Z" fill="white"/>
<path d="M427.86 166.023C428.683 168.723 429.271 171.489 429.619 174.29C429.813 175.881 429.909 177.483 429.907 179.087C429.907 179.566 429.907 180.03 429.907 180.494V180.686C429.907 181.123 429.875 181.555 429.811 181.981V182.221C429.811 182.653 429.715 183.068 429.651 183.468C429.587 183.868 429.491 184.427 429.427 184.811C429.364 185.195 429.236 185.707 429.14 186.074V186.266C429.044 186.639 428.937 187.002 428.82 187.354V187.545C428.708 187.897 428.58 188.249 428.452 188.585C428.324 188.921 428.148 189.32 428.004 189.64C427.86 189.96 427.637 190.376 427.477 190.679L427.381 190.855C427.221 191.143 427.05 191.426 426.869 191.703L426.549 191.879C426.357 192.166 426.166 192.438 425.958 192.71C425.75 192.982 425.542 193.238 425.318 193.478L425.222 193.59L424.567 194.261L424.439 194.389L423.751 194.997L423.639 195.077L422.92 195.62C422.616 195.828 422.344 195.988 422.088 196.148L421.944 196.228L421.145 196.644H420.985L420.137 196.995L419.594 197.171C419.498 186.97 412.334 174.626 403.476 169.509C394.617 164.392 387.262 168.485 387.246 178.751C387.246 178.751 387.502 179.183 387.982 179.902L387.358 179.023L386.415 177.632L386.271 177.408L385.439 176.097L385.263 175.809L384.448 174.434L383.648 173.011L383.505 172.739L382.785 171.348L382.657 171.092L382.001 169.749C381.714 169.141 381.506 168.661 381.282 168.15L381.154 167.846C380.941 167.366 380.738 166.886 380.546 166.407C380.291 165.783 380.115 165.319 379.955 164.808L379.875 164.584C379.694 164.104 379.523 163.619 379.363 163.129L379.267 162.841C378.937 161.85 378.638 160.858 378.372 159.867V159.579C378.244 159.099 378.121 158.62 378.004 158.14V157.884C377.897 157.426 377.801 156.967 377.716 156.509C377.588 155.869 377.508 155.39 377.428 154.91V154.606C377.354 154.127 377.284 153.647 377.22 153.167C377.22 152.56 377.109 152.112 377.061 151.664V151.424C377.061 150.955 377.034 150.492 376.981 150.033V149.729C376.981 149.25 376.981 148.786 376.981 148.306C376.98 146.808 377.087 145.312 377.3 143.829C377.595 141.684 378.204 139.593 379.107 137.625C379.278 137.263 379.459 136.916 379.651 136.586C383.968 128.831 393.098 126.992 403.636 133.116C413.102 138.584 421.385 149.106 426.022 160.299C426.325 161.034 426.629 161.786 426.901 162.537C427.2 163.752 427.519 164.914 427.86 166.023ZM403.876 166.791C409.328 169.989 413.757 167.398 413.773 161.146C413.595 157.733 412.611 154.41 410.901 151.451C409.192 148.491 406.807 145.978 403.94 144.117C398.503 140.919 394.058 143.493 394.042 149.761C394.224 153.174 395.21 156.495 396.919 159.454C398.628 162.413 401.011 164.927 403.876 166.791Z" fill="url(#paint4_linear)"/>
<path d="M469.482 249.906C470.559 250.605 471.454 251.549 472.096 252.661C472.738 253.772 473.108 255.02 473.176 256.302V271.86C473.176 274.211 471.577 275.17 469.45 273.987L327.14 191.863C326.064 191.163 325.168 190.219 324.526 189.108C323.884 187.996 323.514 186.749 323.446 185.467V169.909C323.446 167.574 325.045 166.615 327.172 167.798L469.482 249.906Z" fill="#CFE3FF"/>
<path d="M469.386 283.757C470.463 284.456 471.358 285.4 472 286.511C472.642 287.623 473.012 288.871 473.08 290.153V305.711C473.08 308.061 471.481 309.005 469.354 307.821L327.044 225.697C325.966 225 325.069 224.056 324.427 222.944C323.784 221.832 323.416 220.584 323.351 219.301V203.743C323.351 201.393 324.949 200.433 327.076 201.617L469.386 283.757Z" fill="#CFE3FF"/>
<path d="M405.938 290.536C407.946 291.841 409.616 293.601 410.814 295.674C412.012 297.747 412.702 300.074 412.83 302.465V305.279C412.83 309.676 409.712 311.435 405.89 309.228L369.689 288.33C367.677 287.025 366.002 285.263 364.801 283.187C363.6 281.111 362.908 278.78 362.782 276.385V273.587C362.782 269.206 365.98 267.431 369.721 269.638L405.938 290.536Z" fill="url(#paint5_linear)"/>
<path d="M274.645 288.538C274.645 288.538 262.365 295.605 260.478 327.969C262.077 333.933 271.479 337.083 278.707 332.366C285.934 327.649 278.467 294.038 274.645 288.538Z" fill="url(#paint6_linear)"/>
<path d="M337.086 323.491C337.086 323.491 365.196 310.971 368.986 308.845C372.775 306.718 375.605 298.915 376.981 297.268C378.356 295.621 384.784 291.831 384.544 293.494C384.304 295.157 380.994 298.291 380.994 298.291C382.225 300.363 383.177 302.589 383.824 304.911C384.304 307.518 380.754 312.714 378.867 314.121C376.981 315.528 372.471 316.008 372.471 316.008C372.471 316.008 349.558 331.358 345.768 331.598C341.979 331.838 336.622 329.632 337.086 323.491Z" fill="#FF9D6F"/>
<path style="mix-blend-mode:multiply" opacity="0.21" d="M303.443 517.673C334.828 517.673 360.271 502.553 360.271 483.902C360.271 465.251 334.828 450.131 303.443 450.131C272.058 450.131 246.615 465.251 246.615 483.902C246.615 502.553 272.058 517.673 303.443 517.673Z" fill="url(#paint7_linear)"/>
<path d="M279.874 476.627C279.874 476.627 279.139 481.983 280.114 484.174C280.933 485.354 282.181 486.166 283.591 486.438C285.001 486.71 286.462 486.42 287.661 485.629C290.241 483.518 292.682 481.243 294.969 478.817C294.969 478.817 302.756 474.676 303.491 472.421C304.227 470.167 301.54 468.28 299.35 468.776C297.159 469.271 290.827 473.157 287.917 473.157C285.007 473.157 280.849 473.956 279.874 476.627Z" fill="#113C7A"/>
<path d="M271.847 362.651C271.847 362.651 278.659 475.076 279.506 478.322C280.354 481.568 289.196 483.454 290.827 478.322C291.866 475.044 294.425 370.997 294.425 370.997L271.847 362.651Z" fill="#113C7A"/>
<path d="M302.404 483.326C302.218 483.49 302.068 483.692 301.966 483.918C301.864 484.144 301.812 484.389 301.812 484.638C301.812 486.237 301.812 489.626 302.74 491.034C303.719 492.276 305.115 493.122 306.67 493.416C308.224 493.71 309.833 493.432 311.198 492.633C314.396 490.922 323.99 483.662 326.021 482.063C326.995 481.269 327.685 480.181 327.988 478.961C328.091 478.558 328.049 478.131 327.867 477.756C327.686 477.381 327.377 477.083 326.996 476.914C325.193 476.001 323.123 475.762 321.16 476.243C317.962 477.33 313.9 480.8 309.519 480.624C306.897 480.626 304.366 481.588 302.404 483.326Z" fill="#113C7A"/>
<path d="M317.434 363.866C316.939 359.197 311.358 357.678 306.241 359.261C296.424 358.733 281.201 359.149 280.658 366.776C279.874 378.065 285.167 386.124 290.251 391.608C294.025 395.654 296.535 403.409 297.591 407.183C298.486 437.004 300.453 479.041 301.7 483.071C303.683 489.546 313.469 489.259 313.9 482.943C315.867 461.612 317.434 363.866 317.434 363.866Z" fill="#113C7A"/>
<path d="M317.466 367.384C316.315 373.156 299.877 376.034 290.283 374.499C280.689 372.964 270.312 368.247 270.664 357.102C270.664 357.102 269.209 312.554 269.209 303.792C269.366 298.247 271.3 292.9 274.725 288.538C274.725 288.538 280.114 282.381 297.031 285.851C297.031 285.851 310.814 288.857 317.162 299.043C317.162 299.043 321.544 310.236 320.089 333.597C318.633 356.958 317.466 367.384 317.466 367.384Z" fill="url(#paint8_linear)"/>
<path d="M283.76 273.427C283.76 273.427 285.215 281.95 283.76 285.835C283.52 287.786 292.042 294.358 299.574 292.647C303.955 291.672 303.715 289.449 303.715 289.449C303.715 289.449 300.069 283.357 300.517 277.521C300.965 271.684 288.876 272.276 283.76 273.427Z" fill="#FF7C40"/>
<path d="M292.17 276.417C303.262 276.417 312.254 267.426 312.254 256.334C312.254 245.242 303.262 236.251 292.17 236.251C281.079 236.251 272.087 245.242 272.087 256.334C272.087 267.426 281.079 276.417 292.17 276.417Z" fill="#FF9D6F"/>
<path d="M312.238 257.677C312.238 257.677 312.477 277.792 308.096 281.854C303.715 285.915 296.983 278.048 286.238 275.458C275.477 272.692 294.952 251.777 294.952 251.777L312.238 257.677Z" fill="#FF9D6F"/>
<path d="M310.623 294.358C310.623 294.358 315.02 293.095 320.041 300.322C325.061 307.55 332.289 316.968 335.743 318.551C339.197 320.134 343.914 316.952 345.8 316.952C347.687 316.952 352.708 325.746 350.821 330.143C348.934 334.54 336.686 336.747 333.536 336.747C330.386 336.747 309.967 324.499 307.153 317.559C304.339 310.62 299.941 294.678 310.623 294.358Z" fill="url(#paint9_linear)"/>
<path d="M342.986 317.927C343.479 316.829 344.272 315.893 345.273 315.225C346.274 314.558 347.444 314.186 348.647 314.153C353.044 313.834 358.065 322.324 357.761 327.041C357.457 331.758 350.533 334.269 348.966 333.005C347.399 331.742 350.517 328.608 342.986 317.927Z" fill="url(#paint10_linear)"/>
<path d="M304.179 239.385C304.179 239.385 311.406 240.984 313.597 251.953C312.653 256.67 306.05 252.896 303.539 259.18C302.548 262.072 301.177 264.82 299.462 267.351L297.863 266.727C297.863 266.727 297.863 261.707 295.656 261.707C293.449 261.707 292.826 267.671 294.057 270.181C294.999 271.826 296.422 273.142 298.135 273.955C298.135 273.955 294.937 279.295 293.417 279.919C291.898 280.543 286.19 279.295 283.999 278.32C281.809 277.345 277.715 272.979 274.581 267.959C271.447 262.938 268.617 254.143 270.504 248.163C270.931 246.52 271.716 244.992 272.802 243.687C273.888 242.382 275.249 241.334 276.788 240.616C278.593 238.347 280.981 236.611 283.696 235.595C287.156 234.475 290.841 234.236 294.417 234.897C297.993 235.559 301.348 237.101 304.179 239.385Z" fill="#843837"/>
<path d="M307.633 290.073L302.404 287.146C302.404 287.146 289.004 285.883 284.175 282.749L281.665 286.219C282.93 288.302 284.673 290.053 286.751 291.326C288.828 292.6 291.179 293.36 293.609 293.542C302.196 294.374 306.177 291.032 306.177 291.032L307.633 290.073Z" fill="#CFDAE4"/>
<g opacity="0.67">
<path opacity="0.67" d="M543.866 130.797V136.682C543.863 137.471 543.652 138.247 543.255 138.929C542.858 139.612 542.288 140.179 541.603 140.572C540.918 140.965 540.142 141.172 539.352 141.171C538.562 141.17 537.787 140.962 537.103 140.567L509.328 124.465C508.644 124.066 508.077 123.494 507.684 122.807C507.291 122.119 507.086 121.34 507.09 120.548V114.663C507.093 113.874 507.304 113.099 507.701 112.416C508.098 111.733 508.668 111.167 509.353 110.773C510.037 110.38 510.814 110.173 511.604 110.174C512.393 110.175 513.169 110.383 513.853 110.778L541.676 126.896C542.349 127.299 542.905 127.871 543.289 128.556C543.673 129.24 543.872 130.013 543.866 130.797Z" fill="#1AE5FF"/>
<path opacity="0.67" d="M631.7 210.763V216.663C631.696 217.453 631.485 218.228 631.088 218.911C630.691 219.594 630.121 220.16 629.437 220.553C628.752 220.947 627.975 221.154 627.186 221.153C626.396 221.152 625.62 220.943 624.936 220.549L509.249 153.775C508.562 153.378 507.991 152.807 507.595 152.119C507.2 151.431 506.992 150.651 506.994 149.857V143.909C506.998 143.119 507.209 142.344 507.606 141.661C508.003 140.978 508.572 140.412 509.257 140.019C509.942 139.625 510.719 139.418 511.508 139.419C512.298 139.42 513.074 139.629 513.758 140.023L629.429 206.797C630.126 207.196 630.705 207.774 631.104 208.471C631.503 209.168 631.709 209.959 631.7 210.763Z" fill="#1AE5FF"/>
<g opacity="0.53">
<path opacity="0.53" d="M583.842 241.831V247.731C583.838 248.521 583.628 249.296 583.23 249.979C582.833 250.662 582.264 251.228 581.579 251.622C580.894 252.015 580.118 252.222 579.328 252.221C578.538 252.22 577.762 252.012 577.078 251.617L509.105 212.362C508.418 211.965 507.847 211.394 507.451 210.706C507.056 210.018 506.848 209.238 506.851 208.444V202.544C506.854 201.754 507.065 200.979 507.462 200.296C507.859 199.613 508.429 199.047 509.113 198.653C509.798 198.26 510.575 198.053 511.365 198.054C512.154 198.055 512.93 198.263 513.614 198.658L581.651 237.914C582.327 238.318 582.884 238.893 583.269 239.58C583.653 240.268 583.851 241.044 583.842 241.831Z" fill="#1AE5FF"/>
</g>
<path opacity="0.67" d="M613.631 229.711V235.611C613.628 236.401 613.417 237.176 613.02 237.859C612.622 238.542 612.053 239.108 611.368 239.501C610.683 239.895 609.907 240.102 609.117 240.101C608.327 240.1 607.551 239.892 606.867 239.497L509.137 183.068C508.45 182.671 507.879 182.1 507.483 181.412C507.088 180.725 506.88 179.944 506.882 179.151V173.25C506.886 172.461 507.097 171.685 507.494 171.003C507.891 170.32 508.461 169.753 509.146 169.36C509.83 168.967 510.607 168.76 511.397 168.761C512.186 168.762 512.962 168.97 513.646 169.365L611.376 225.793C612.064 226.19 612.634 226.761 613.03 227.449C613.426 228.137 613.633 228.917 613.631 229.711Z" fill="#1AE5FF"/>
</g>
<g opacity="0.67">
<path opacity="0.67" d="M79.8885 88.8398V91.8619C79.8893 92.2693 79.9974 92.6693 80.2019 93.0216C80.4065 93.3739 80.7003 93.6661 81.0537 93.8687C81.4071 94.0714 81.8077 94.1773 82.2151 94.1759C82.6224 94.1745 83.0223 94.0657 83.3743 93.8606L97.6532 85.5779C97.9963 85.3668 98.2785 85.07 98.4719 84.7167C98.6654 84.3635 98.7635 83.9659 98.7565 83.5631V80.541C98.7557 80.1337 98.6476 79.7337 98.443 79.3814C98.2385 79.0291 97.9447 78.7369 97.5913 78.5342C97.2379 78.3316 96.8373 78.2256 96.4299 78.2271C96.0225 78.2285 95.6227 78.3372 95.2707 78.5423L81.0397 86.8251C80.6877 87.0302 80.396 87.3244 80.1939 87.6781C79.9918 88.0317 79.8864 88.4324 79.8885 88.8398Z" fill="#1AE5FF"/>
<path opacity="0.67" d="M34.701 129.982V133.02C34.7018 133.427 34.81 133.827 35.0145 134.18C35.2191 134.532 35.5129 134.824 35.8663 135.027C36.2197 135.229 36.6203 135.335 37.0276 135.334C37.435 135.332 37.8348 135.224 38.1868 135.019L97.7012 100.656C98.0562 100.453 98.3511 100.16 98.5561 99.8061C98.7611 99.4523 98.8689 99.0505 98.8685 98.6416V95.6035C98.8677 95.1961 98.7596 94.7962 98.555 94.4438C98.3504 94.0915 98.0566 93.7994 97.7032 93.5967C97.3498 93.3941 96.9493 93.2881 96.5419 93.2895C96.1345 93.291 95.7347 93.3997 95.3827 93.6048L35.8683 127.919C35.5062 128.126 35.2066 128.427 35.0012 128.79C34.7958 129.153 34.6921 129.565 34.701 129.982Z" fill="#1AE5FF"/>
<g opacity="0.53">
<path opacity="0.53" d="M59.3254 145.972V149.01C59.3262 149.417 59.4343 149.817 59.6389 150.169C59.8435 150.522 60.1373 150.814 60.4907 151.017C60.8441 151.219 61.2446 151.325 61.652 151.324C62.0594 151.322 62.4592 151.214 62.8112 151.009L97.7971 130.813C98.1521 130.61 98.447 130.317 98.652 129.963C98.857 129.609 98.9648 129.207 98.9644 128.799V125.76C98.9636 125.353 98.8554 124.953 98.6509 124.601C98.4463 124.248 98.1525 123.956 97.7991 123.754C97.4457 123.551 97.0452 123.445 96.6378 123.446C96.2304 123.448 95.8306 123.557 95.4786 123.762L60.4927 143.909C60.1306 144.116 59.831 144.417 59.6256 144.78C59.4201 145.143 59.3165 145.555 59.3254 145.972Z" fill="#1AE5FF"/>
</g>
<path opacity="0.67" d="M43.9752 139.72V142.758C43.976 143.165 44.0841 143.565 44.2886 143.917C44.4932 144.27 44.787 144.562 45.1404 144.765C45.4938 144.967 45.8944 145.073 46.3018 145.072C46.7091 145.07 47.109 144.962 47.461 144.756L97.7492 115.735C98.1041 115.532 98.399 115.238 98.604 114.885C98.809 114.531 98.9168 114.129 98.9164 113.72V110.682C98.9089 110.276 98.7951 109.88 98.5863 109.532C98.3775 109.184 98.0811 108.897 97.7266 108.699C97.3722 108.502 96.9721 108.401 96.5664 108.407C96.1607 108.412 95.7635 108.524 95.4146 108.731L45.1424 137.705C44.7875 137.908 44.4925 138.201 44.2875 138.555C44.0825 138.909 43.9748 139.311 43.9752 139.72Z" fill="#1AE5FF"/>
</g>
<path d="M294.984 219.365C308.231 219.365 318.969 208.627 318.969 195.38C318.969 182.134 308.231 171.396 294.984 171.396C281.738 171.396 271 182.134 271 195.38C271 208.627 281.738 219.365 294.984 219.365Z" fill="url(#paint11_linear)"/>
<path d="M292.922 206.413L282.912 199.09L286.558 194.101L291.754 197.907L302.276 184.475L307.137 188.281L292.922 206.413Z" fill="white"/>
<g opacity="0.46">
<path opacity="0.46" d="M263.708 89.1436C266.684 91.0782 269.161 93.6884 270.936 96.7617C272.712 99.8349 273.736 103.284 273.926 106.828C273.926 113.368 269.305 115.991 263.644 112.729L170.503 58.9707C167.521 57.0314 165.041 54.4136 163.265 51.3314C161.489 48.2493 160.468 44.7904 160.286 41.2379C160.286 34.746 164.907 32.1077 170.567 35.3856L263.708 89.1436Z" fill="#1AE5FF"/>
</g>
<g opacity="0.46">
<path opacity="0.46" d="M616.829 373.892C618.898 375.237 620.619 377.052 621.853 379.188C623.087 381.325 623.798 383.724 623.928 386.188C623.928 390.729 620.73 392.584 616.781 390.281L552.022 352.897C549.943 351.555 548.212 349.739 546.969 347.599C545.727 345.459 545.009 343.055 544.874 340.585C544.874 336.075 548.072 334.189 552.022 336.507L616.829 373.892Z" fill="#1AE5FF"/>
</g>
<path d="M170.487 306.558C172.886 307.949 172.886 310.172 170.487 311.563L90.9695 357.79C89.6326 358.472 88.1531 358.828 86.6522 358.828C85.1513 358.828 83.6718 358.472 82.3349 357.79L33.198 329.392C30.7995 328.017 30.7835 325.778 33.198 324.387L112.796 278.224C114.135 277.549 115.613 277.198 117.113 277.198C118.612 277.198 120.091 277.549 121.43 278.224L170.487 306.558Z" fill="url(#paint12_linear)"/>
<g style="mix-blend-mode:multiply" opacity="0.21">
<path style="mix-blend-mode:multiply" opacity="0.21" d="M118.136 414.906C95.2707 428.113 95.1428 449.524 117.864 462.731C140.586 475.939 177.555 475.939 200.42 462.731C223.286 449.524 223.414 428.113 200.692 414.922C177.97 401.73 141.018 401.698 118.136 414.906Z" fill="url(#paint13_linear)"/>
</g>
<path d="M145.943 445.031C145.943 445.031 135.421 447.717 131.312 447.717C127.203 447.717 131.312 451.826 138.172 452.29C145.031 452.754 151.427 453.201 152.802 451.379C154.177 449.556 152.499 444.375 152.499 444.375L145.943 445.031Z" fill="#5155D4"/>
<path d="M175.188 435.421C175.188 435.421 164.683 438.123 160.573 438.123C156.464 438.123 160.573 442.232 167.433 442.696C174.293 443.16 180.689 443.608 182.064 441.785C183.439 439.962 181.76 434.781 181.76 434.781L175.188 435.421Z" fill="#5155D4"/>
<path d="M177.475 321.892C177.475 321.892 181.28 426.434 181.888 437.403C180.941 438.11 179.843 438.587 178.681 438.798C177.518 439.009 176.323 438.948 175.188 438.619C175.188 438.619 162.844 370.038 161.021 352.369C159.198 334.7 156.224 328.592 156.224 328.592L177.475 321.892Z" fill="#343996"/>
<path d="M138.475 327.985C138.475 327.985 134.814 388.33 145.783 446.853C145.783 446.853 149.444 448.676 152.483 444.423C152.483 444.423 159.182 342.088 161.021 327.393C162.86 312.698 143.352 324.947 138.475 327.985Z" fill="#343996"/>
<path d="M154.929 374.307C154.929 374.307 161.021 357.246 166.506 348.1C171.99 338.954 170.711 325.554 170.711 325.554L149.924 327.377L154.929 374.307Z" fill="#343996"/>
<path d="M133.822 268.326L115.706 259.548C115.706 259.548 110.221 254.063 108.846 252.96C107.471 251.857 98.4207 249.666 96.7738 249.938C95.1268 250.21 92.1047 252.688 92.9362 253.232C93.7677 253.776 101.443 257.901 101.715 259.548C101.986 261.195 98.9644 263.385 100.116 264.489C101.267 265.592 103.681 263.385 105.328 263.385C107.485 263.862 109.574 264.603 111.548 265.592L129.137 275.746L133.822 268.326Z" fill="#FF9D6F"/>
<path d="M172.454 250.721C172.454 250.721 169.096 247.06 163.612 254.079C158.127 261.099 153.554 271.444 145.927 270.533C138.3 269.622 125.811 263.529 125.811 263.529C125.811 263.529 120.327 267.191 121.238 272.676C121.238 272.676 138.923 285.787 150.804 285.164C162.684 284.54 175.508 272.372 178.242 263.833C180.977 255.295 172.454 250.721 172.454 250.721Z" fill="#FF3D9D"/>
<path d="M135.805 327.793C136.892 333.261 152.467 335.996 161.581 334.54C170.695 333.085 180.497 328.608 180.177 318.055C180.177 318.055 181.568 275.858 181.568 267.559C181.405 262.327 179.573 257.284 176.339 253.168C176.339 253.168 171.239 247.332 155.217 250.626C155.217 250.626 142.153 253.472 136.141 263.13C136.141 263.13 131.984 273.731 133.375 295.877C134.766 318.023 135.805 327.793 135.805 327.793Z" fill="#FF3D9D"/>
<path d="M167.721 238.905C167.721 238.905 166.33 246.9 167.721 250.658C167.945 252.496 159.886 258.652 152.738 257.053C148.581 256.126 148.821 254.063 148.821 254.063C148.821 254.063 152.275 248.291 151.811 242.759C151.347 237.226 162.876 237.754 167.721 238.905Z" fill="#FF7C40"/>
<path d="M159.758 241.687C170.267 241.687 178.786 233.168 178.786 222.659C178.786 212.15 170.267 203.631 159.758 203.631C149.249 203.631 140.73 212.15 140.73 222.659C140.73 233.168 149.249 241.687 159.758 241.687Z" fill="#FF9D6F"/>
<path d="M140.746 223.858C140.746 223.858 140.522 242.918 144.663 246.756C148.805 250.594 155.185 243.158 165.45 240.776C175.716 238.393 157.2 218.39 157.2 218.39L140.746 223.858Z" fill="#FF9D6F"/>
<path d="M117.193 286.219C117.193 286.219 90.5537 274.355 86.9719 272.34C83.3902 270.325 80.7039 262.938 79.3608 261.371C78.0176 259.804 71.9734 256.222 72.1973 257.789C72.4211 259.356 75.5552 262.266 75.5552 262.266C74.3848 264.259 73.4867 266.399 72.8848 268.63C72.4371 271.093 75.795 276.017 77.5859 277.361C79.4629 278.35 81.517 278.959 83.6301 279.151C83.6301 279.151 105.344 293.702 108.926 293.926C112.508 294.15 117.641 292.087 117.193 286.219Z" fill="#FF9D6F"/>
<path d="M140.906 262.234C140.906 262.234 137.548 258.573 132.063 265.592C126.579 272.612 122.006 282.957 114.379 282.046C106.751 281.134 94.2794 275.026 94.2794 275.026C94.2794 275.026 88.7948 278.688 89.7063 284.172C89.7063 284.172 107.391 297.284 119.272 296.66C131.152 296.037 143.96 283.869 146.694 275.33C149.429 266.791 140.906 262.234 140.906 262.234Z" fill="#FF3D9D"/>
<path d="M148.325 206.605C148.325 206.605 141.481 208.092 139.403 218.502C140.298 222.963 146.55 219.397 148.997 225.346C149.938 228.085 151.239 230.688 152.866 233.085L154.353 232.493C154.353 232.493 154.353 227.696 156.432 227.696C158.511 227.696 159.118 233.356 157.919 235.691C157.023 237.247 155.673 238.491 154.05 239.257C154.05 239.257 157.024 244.31 158.511 244.917C159.998 245.525 165.354 244.326 167.433 243.43C169.512 242.535 173.381 238.377 176.355 233.612C179.33 228.847 182.016 220.517 180.225 214.856C179.798 213.328 179.043 211.911 178.013 210.705C176.983 209.498 175.703 208.53 174.261 207.869C172.558 205.704 170.297 204.045 167.721 203.072C164.448 202.009 160.963 201.776 157.577 202.393C154.192 203.01 151.013 204.457 148.325 206.605Z" fill="#843837"/>
<path d="M146.854 219.189C148.239 221.069 149.166 223.246 149.563 225.547C149.96 227.848 149.815 230.21 149.141 232.445C146.854 240.216 150.052 240.216 153.25 250.274C156.448 260.331 147.302 272.212 156 286.843C164.699 301.473 187.98 299.635 198.517 285.02C209.055 270.405 192.569 259.884 192.122 246.644C191.674 233.404 202.179 225.617 190.299 216.471C178.418 207.325 173.381 197.283 158.751 201.393C144.12 205.502 140.458 212.777 146.854 219.189Z" fill="#843837"/>
<defs>
<linearGradient id="paint0_linear" x1="62.4275" y1="247.38" x2="86.3963" y2="247.38" gradientUnits="userSpaceOnUse">
<stop stop-color="#CC68FF"/>
<stop offset="1" stop-color="#FB8E31"/>
</linearGradient>
<linearGradient id="paint1_linear" x1="447.24" y1="439.722" x2="379.907" y2="-60.6976" gradientUnits="userSpaceOnUse">
<stop stop-color="#1AE5FF"/>
<stop offset="0.26" stop-color="#64E8F9"/>
<stop offset="0.7" stop-color="#EAEEEE"/>
</linearGradient>
<linearGradient id="paint2_linear" x1="584.737" y1="306.622" x2="557.283" y2="306.622" gradientUnits="userSpaceOnUse">
<stop stop-color="#5155D4"/>
<stop offset="1" stop-color="#45F7FF"/>
</linearGradient>
<linearGradient id="paint3_linear" x1="233.679" y1="220.788" x2="573.768" y2="220.788" gradientUnits="userSpaceOnUse">
<stop stop-color="#7F5EFF"/>
<stop offset="0.24" stop-color="#8665FF"/>
<stop offset="0.6" stop-color="#9978FF"/>
<stop offset="0.94" stop-color="#B391FF"/>
</linearGradient>
<linearGradient id="paint4_linear" x1="12522" y1="3601.83" x2="13461.8" y2="12954.5" gradientUnits="userSpaceOnUse">
<stop stop-color="#5155D4"/>
<stop offset="1" stop-color="#45F7FF"/>
</linearGradient>
<linearGradient id="paint5_linear" x1="11562.1" y1="6776.21" x2="11562.1" y2="8781.49" gradientUnits="userSpaceOnUse">
<stop stop-color="#7F5EFF"/>
<stop offset="0.24" stop-color="#8665FF"/>
<stop offset="0.6" stop-color="#9978FF"/>
<stop offset="0.94" stop-color="#B391FF"/>
</linearGradient>
<linearGradient id="paint6_linear" x1="-9302.35" y1="9874.86" x2="-10238.9" y2="9498.56" gradientUnits="userSpaceOnUse">
<stop stop-color="#1AE5FF"/>
<stop offset="0.26" stop-color="#64E8F9"/>
<stop offset="0.7" stop-color="#EAEEEE"/>
</linearGradient>
<linearGradient id="paint7_linear" x1="5088.93" y1="20890.1" x2="13167.6" y2="20890.1" gradientUnits="userSpaceOnUse">
<stop stop-color="#5155D4"/>
<stop offset="1" stop-color="#45F7FF"/>
</linearGradient>
<linearGradient id="paint8_linear" x1="-23738.4" y1="25033.7" x2="-22703.9" y2="12769.1" gradientUnits="userSpaceOnUse">
<stop stop-color="#1AE5FF"/>
<stop offset="0.26" stop-color="#64E8F9"/>
<stop offset="0.7" stop-color="#EAEEEE"/>
</linearGradient>
<linearGradient id="paint9_linear" x1="-20991.7" y1="11854.4" x2="-20742.8" y2="6043.48" gradientUnits="userSpaceOnUse">
<stop stop-color="#1AE5FF"/>
<stop offset="0.26" stop-color="#64E8F9"/>
<stop offset="0.7" stop-color="#EAEEEE"/>
</linearGradient>
<linearGradient id="paint10_linear" x1="-5824.33" y1="4588.73" x2="-5740.43" y2="4096.96" gradientUnits="userSpaceOnUse">
<stop stop-color="#1AE5FF"/>
<stop offset="0.26" stop-color="#64E8F9"/>
<stop offset="0.7" stop-color="#EAEEEE"/>
</linearGradient>
<linearGradient id="paint11_linear" x1="8061.75" y1="6335.5" x2="9388.59" y2="3806.54" gradientUnits="userSpaceOnUse">
<stop stop-color="#CC68FF"/>
<stop offset="1" stop-color="#FB8E31"/>
</linearGradient>
<linearGradient id="paint12_linear" x1="55.36" y1="359.852" x2="142.809" y2="281.214" gradientUnits="userSpaceOnUse">
<stop stop-color="#92F3FF"/>
<stop offset="1" stop-color="white"/>
</linearGradient>
<linearGradient id="paint13_linear" x1="5278.63" y1="18963.5" x2="13802.3" y2="18963.5" gradientUnits="userSpaceOnUse">
<stop stop-color="#5155D4"/>
<stop offset="1" stop-color="#45F7FF"/>
</linearGradient>
<clipPath id="clip0">
<rect width="646" height="493" fill="white" transform="translate(0 25)"/>
</clipPath>
</defs>
</svg>
